<svg width="24" height="24" viewBox="0 0 24 24" fill="none" xmlns="http://www.w3.org/2000/svg">
<path d="M11.0697 2.35872C11.4027 1.51457 12.5973 1.51457 12.9303 2.35872L13.1633 2.94951C14.5863 6.55763 17.4424 9.41371 21.0505 10.8367L21.6413 11.0697C22.4854 11.4027 22.4854 12.5973 21.6413 12.9303L21.0505 13.1633C17.4424 14.5863 14.5863 17.4424 13.1633 21.0505L12.9303 21.6413C12.5973 22.4854 11.4027 22.4854 11.0697 21.6413L10.8367 21.0505C9.41371 17.4424 6.55762 14.5863 2.94951 13.1633L2.35872 12.9303C1.51457 12.5973 1.51457 11.4027 2.35872 11.0697L2.94951 10.8367C6.55763 9.41371 9.41371 6.55762 10.8367 2.94951L11.0697 2.35872Z" fill="#FFC121"/>
</svg>
