<svg width="264" height="41" viewBox="0 0 264 41" fill="none" xmlns="http://www.w3.org/2000/svg">
<path d="M12.4297 31.2906C8.5663 31.2906 5.65526 30.5803 3.69664 29.1598C1.74877 27.7284 0.758699 25.786 0.726414 23.3323H6.74758C6.77986 24.6022 7.29642 25.5869 8.29726 26.2864C9.29809 26.9859 10.7402 27.3356 12.6235 27.3356C14.3023 27.3356 15.5829 27.072 16.4654 26.5447C17.3478 26.0173 17.7891 25.2748 17.7891 24.317C17.7891 24.048 17.7622 23.8058 17.7083 23.5906C17.6545 23.3646 17.59 23.1655 17.5146 22.9933C17.4501 22.8211 17.3263 22.6651 17.1434 22.5252C16.9712 22.3853 16.8151 22.2669 16.6752 22.17C16.5353 22.0624 16.3093 21.9656 15.9972 21.8795C15.6852 21.7826 15.4215 21.7073 15.2063 21.6535C14.991 21.5889 14.6574 21.5243 14.2054 21.4598C13.7534 21.3844 13.3768 21.3306 13.0754 21.2983C12.7741 21.2553 12.3275 21.1961 11.7356 21.1208C10.3043 20.9593 9.06672 20.7656 8.02283 20.5396C6.97895 20.3136 6.02116 20.0177 5.14947 19.6518C4.27777 19.2859 3.57288 18.8501 3.03479 18.3443C2.49671 17.8277 2.08239 17.2143 1.79182 16.504C1.50125 15.783 1.35597 14.9489 1.35597 14.0019C1.35597 11.6559 2.31914 9.83715 4.24548 8.54575C6.17183 7.25435 8.83534 6.60865 12.236 6.60865C15.3892 6.60865 17.8967 7.24358 19.7585 8.51346C21.631 9.78334 22.6587 11.5698 22.8417 13.8728H17.0304C16.9012 12.7536 16.4008 11.9195 15.5291 11.3707C14.6574 10.8111 13.479 10.5313 11.9939 10.5313C10.498 10.5313 9.33576 10.7842 8.50711 11.29C7.68922 11.7958 7.28028 12.4899 7.28028 13.3724C7.28028 13.7275 7.31794 14.0288 7.39328 14.2763C7.46861 14.5239 7.61389 14.7499 7.82912 14.9543C8.05512 15.148 8.29726 15.3095 8.55554 15.4386C8.82458 15.557 9.212 15.6754 9.7178 15.7937C10.2236 15.9014 10.7294 15.9928 11.2352 16.0682C11.741 16.1435 12.4136 16.2296 13.253 16.3264C14.7489 16.4986 16.0134 16.6977 17.0465 16.9237C18.0796 17.139 19.0428 17.4349 19.936 17.8116C20.84 18.1775 21.5503 18.6241 22.0668 19.1514C22.5942 19.6787 23.0031 20.3352 23.2937 21.1208C23.5842 21.8956 23.7295 22.8104 23.7295 23.865C23.7295 26.2111 22.7502 28.0352 20.7916 29.3373C18.8437 30.6395 16.0564 31.2906 12.4297 31.2906ZM33.5603 31.2906C32.3658 31.2906 31.3111 31.1453 30.3964 30.8547C29.4816 30.5642 28.6745 30.1068 27.975 29.4826C27.2862 28.8477 26.7589 27.9921 26.393 26.9159C26.0379 25.829 25.8603 24.5322 25.8603 23.0256V13.2755H31.4456V22.0409C31.4456 23.709 31.7577 24.9681 32.3819 25.8182C33.0168 26.6684 34.05 27.0935 35.4813 27.0935C36.9556 27.0935 38.1394 26.6308 39.0326 25.7053C39.9258 24.7797 40.3725 23.5691 40.3725 22.0732V13.2755H45.9578V31H40.6146L40.3725 27.8845H40.1142C39.5653 28.9176 38.6936 29.7463 37.4991 30.3704C36.3045 30.9839 34.9916 31.2906 33.5603 31.2906ZM61.503 31.2583C59.8672 31.2583 58.4897 30.9892 57.3705 30.4512C56.2513 29.9023 55.4173 29.149 54.8684 28.1912H54.6263L54.4649 31H49.2024V6.89921H54.7554V16.1166H54.9653C55.5249 15.1265 56.3912 14.3517 57.5642 13.7921C58.7373 13.2325 60.0502 12.9527 61.503 12.9527C64.1289 12.9527 66.2328 13.7813 67.8147 15.4386C69.4075 17.0959 70.2038 19.3182 70.2038 22.1055C70.2038 24.9035 69.4075 27.1312 67.8147 28.7885C66.2328 30.435 64.1289 31.2583 61.503 31.2583ZM59.7919 27.0612C61.2663 27.0612 62.4393 26.6308 63.311 25.7698C64.1827 24.8981 64.6185 23.6767 64.6185 22.1055C64.6185 20.5665 64.1827 19.3612 63.311 18.4895C62.4393 17.6178 61.2663 17.182 59.7919 17.182C58.2422 17.182 57.0154 17.6178 56.1114 18.4895C55.2074 19.3505 54.7554 20.4374 54.7554 21.7503V22.5736C54.7554 23.8542 55.2074 24.925 56.1114 25.786C57.0154 26.6361 58.2422 27.0612 59.7919 27.0612ZM81.0839 31.3229C78.0922 31.3229 75.7784 30.8009 74.1426 29.757C72.5176 28.7024 71.6459 27.2442 71.5275 25.3824H76.9514C77.1128 27.1043 78.5441 27.9652 81.2453 27.9652C83.7528 27.9652 85.0065 27.3141 85.0065 26.012C85.0065 25.3017 84.7213 24.8228 84.151 24.5753C83.5914 24.317 82.456 24.1125 80.7449 23.9619C77.5487 23.6605 75.3103 23.1332 74.0296 22.3799C72.7597 21.6266 72.1248 20.389 72.1248 18.6671C72.1248 16.913 72.9212 15.5247 74.5139 14.5023C76.1066 13.4692 78.3181 12.9527 81.1485 12.9527C83.7313 12.9527 85.7975 13.4477 87.3472 14.4378C88.8969 15.4171 89.7632 16.8161 89.9461 18.6348H84.6837C84.5868 17.86 84.2209 17.2789 83.586 16.8914C82.9618 16.4933 82.1385 16.2942 81.1162 16.2942C79.997 16.2942 79.1145 16.4556 78.4688 16.7784C77.8339 17.0905 77.5164 17.564 77.5164 18.199C77.5164 18.5326 77.5917 18.807 77.7424 19.0222C77.8931 19.2375 78.1621 19.415 78.5495 19.5549C78.9477 19.6949 79.3943 19.8078 79.8894 19.8939C80.3844 19.9693 81.0678 20.0446 81.9395 20.1199C83.2524 20.2383 84.3555 20.3836 85.2487 20.5558C86.1527 20.7172 86.9544 20.9324 87.6539 21.2015C88.3534 21.4705 88.9023 21.8095 89.3004 22.2185C89.6986 22.6166 89.9946 23.0955 90.1883 23.6552C90.3928 24.2148 90.495 24.8874 90.495 25.673C90.495 27.4271 89.704 28.81 88.122 29.8216C86.5508 30.8224 84.2048 31.3229 81.0839 31.3229ZM102.344 31.2906C99.1474 31.2906 96.6184 30.4619 94.7566 28.8046C92.8949 27.1366 91.964 24.8927 91.964 22.0732C91.964 19.2536 92.9325 17.0313 94.8696 15.4063C96.8175 13.7705 99.4003 12.9527 102.618 12.9527C105.502 12.9527 107.837 13.5822 109.624 14.8413C111.41 16.1004 112.379 17.7631 112.53 19.8294H107.009C106.794 19.0115 106.293 18.3712 105.508 17.9084C104.722 17.4457 103.748 17.2143 102.586 17.2143C101.015 17.2143 99.7823 17.6609 98.8891 18.5541C97.9959 19.4366 97.5493 20.6204 97.5493 22.1055C97.5493 23.6874 97.9905 24.9089 98.873 25.7698C99.7662 26.6308 100.993 27.0612 102.553 27.0612C103.673 27.0612 104.641 26.8191 105.459 26.3348C106.288 25.8505 106.826 25.1887 107.073 24.3493H112.626C112.519 25.7483 111.991 26.9805 111.044 28.0459C110.097 29.1006 108.865 29.9077 107.348 30.4673C105.841 31.0161 104.173 31.2906 102.344 31.2906ZM115.096 31V13.2755H120.133L120.326 16.0843H120.552C120.918 15.1265 121.521 14.3786 122.36 13.8405C123.211 13.2917 124.217 13.0172 125.379 13.0172C125.949 13.0172 126.434 13.0495 126.832 13.1141V18.1021C126.165 18.016 125.637 17.973 125.25 17.973C122.247 17.973 120.714 19.5065 120.649 22.5736V31H115.096ZM129.043 10.9994V6.89921H134.596V10.9994H129.043ZM129.043 31V13.2755H134.596V31H129.043ZM137.889 36.5207V13.2755H143.152L143.313 16.052H143.555C144.115 15.105 144.954 14.3571 146.074 13.8082C147.193 13.2594 148.565 12.9849 150.19 12.9849C152.805 12.9849 154.909 13.8136 156.502 15.4709C158.095 17.1282 158.891 19.3505 158.891 22.1378C158.891 24.9358 158.089 27.1688 156.486 28.8369C154.893 30.4942 152.784 31.3229 150.158 31.3229C148.705 31.3229 147.397 31.043 146.235 30.4834C145.084 29.9131 144.223 29.1382 143.652 28.1589H143.442V36.5207H137.889ZM148.479 27.0935C149.943 27.0935 151.11 26.6577 151.982 25.786C152.864 24.9035 153.306 23.6874 153.306 22.1378C153.306 20.5881 152.87 19.3828 151.998 18.5218C151.126 17.6501 149.953 17.2143 148.479 17.2143C146.929 17.2143 145.702 17.6394 144.798 18.4895C143.894 19.329 143.442 20.389 143.442 21.6696V22.5413C143.442 23.8542 143.894 24.9412 144.798 25.8021C145.702 26.663 146.929 27.0935 148.479 27.0935ZM168.06 31C166.542 31 165.359 30.6341 164.508 29.9023C163.658 29.1705 163.233 28.0728 163.233 26.6092V17.4726H159.924V13.2755H163.233V8.78789L168.722 7.72248V13.2755H173.112V17.4726H168.722V24.8497C168.722 25.377 168.845 25.7483 169.093 25.9635C169.351 26.168 169.766 26.2702 170.336 26.2702H173.112V31H168.06ZM175.437 10.9994V6.89921H180.99V10.9994H175.437ZM175.437 31V13.2755H180.99V31H175.437ZM194.211 31.3229C190.971 31.3229 188.378 30.5103 186.43 28.8853C184.493 27.2496 183.524 25.0004 183.524 22.1378C183.524 19.2859 184.493 17.0421 186.43 15.4063C188.367 13.7705 190.961 12.9527 194.211 12.9527C197.45 12.9527 200.033 13.7652 201.959 15.3902C203.885 17.0152 204.849 19.2644 204.849 22.1378C204.849 24.9896 203.885 27.2334 201.959 28.8692C200.044 30.505 197.461 31.3229 194.211 31.3229ZM194.211 27.0612C195.803 27.0612 197.046 26.62 197.94 25.7375C198.844 24.8551 199.296 23.6552 199.296 22.1378C199.296 20.6096 198.849 19.4097 197.956 18.538C197.073 17.6555 195.825 17.2143 194.211 17.2143C192.607 17.2143 191.353 17.6555 190.45 18.538C189.556 19.4204 189.11 20.6204 189.11 22.1378C189.11 23.6552 189.556 24.8551 190.45 25.7375C191.353 26.62 192.607 27.0612 194.211 27.0612ZM207.431 31V13.2755H212.791L212.984 16.3587H213.291C213.84 15.3041 214.712 14.4754 215.906 13.8728C217.112 13.2594 218.408 12.9527 219.797 12.9527C220.98 12.9527 222.024 13.0979 222.928 13.3885C223.843 13.6791 224.65 14.1418 225.35 14.7768C226.06 15.4009 226.598 16.2619 226.964 17.3596C227.33 18.4465 227.513 19.754 227.513 21.2822V31H221.944V22.2346C221.944 20.5558 221.626 19.2967 220.991 18.4573C220.367 17.6071 219.334 17.182 217.892 17.182C216.417 17.182 215.228 17.6448 214.324 18.5703C213.431 19.4958 212.984 20.6957 212.984 22.17V31H207.431ZM236.197 31L246.109 18.538L236.827 6.89921H243.994L249.757 14.7283H250.015L255.843 6.89921H262.849L253.68 18.3765L263.414 31H256.198L249.822 22.6059H249.58L243.042 31H236.197Z" fill="white"/>
</svg>
