<svg width="90" height="80" viewBox="0 0 90 80" fill="none" xmlns="http://www.w3.org/2000/svg">
<rect x="51.9688" y="23.959" width="14.1402" height="47.0955" rx="2" fill="#FE5E3A"/>
<rect x="33.4961" y="38.4004" width="14.1402" height="32.6545" rx="2" fill="#FFFAF3" stroke="#080808" stroke-width="2"/>
<rect x="15.6719" y="50.3037" width="14.1402" height="20.7504" rx="2" fill="#080808"/>
<circle cx="68.7434" cy="47.5071" r="10.9934" fill="#080808"/>
<path d="M69.7982 52.6321V54.027H67.6648V52.6048C65.805 52.2219 64.5469 50.8954 64.5469 49.1723H66.6118C66.6118 50.2253 67.5554 50.9774 68.8682 50.9774C69.9896 50.9774 70.687 50.4168 70.687 49.6373C70.687 48.7211 69.6341 48.5843 68.4306 48.4339C66.5024 48.1877 64.6426 47.7775 64.6426 45.5074C64.6426 43.8664 65.8324 42.6766 67.6648 42.3758V41.1587H69.7982V42.4168C71.5349 42.7997 72.6973 44.0578 72.6973 45.6715H70.7007C70.7144 44.7142 69.8529 44.0305 68.6768 44.0305C67.5965 44.0305 66.8854 44.5365 66.8854 45.2476C66.8854 46.1638 67.8563 46.3006 69.087 46.4647C70.9742 46.6835 72.9298 47.0937 72.9298 49.3364C72.9298 51.0458 71.7127 52.3176 69.7982 52.6321Z" fill="white"/>
<path d="M13.0977 45.7004L48.577 18.9871" stroke="#080808" stroke-width="2" stroke-linecap="round" stroke-linejoin="round"/>
<path d="M47.6484 25.5579L48.5746 18.9873L42.004 18.0611" stroke="#080808" stroke-width="2" stroke-linecap="round" stroke-linejoin="round"/>
<path d="M81.4062 16.668L70.8295 22.7745" stroke="#080808" stroke-width="2" stroke-linecap="round"/>
<path d="M80.3281 27.0127H72.5562" stroke="#080808" stroke-width="2" stroke-linecap="round"/>
<path d="M71.9062 12.4297L68.0203 19.1604" stroke="#080808" stroke-width="2" stroke-linecap="round"/>
<circle cx="1.9375" cy="1.9375" r="1.9375" transform="matrix(-0.5 -0.866025 -0.866025 0.5 81.4102 71.7637)" fill="#080808" stroke="#080808" stroke-width="2"/>
<path d="M15.3945 17.8154L21.998 21.6279" stroke="#080808" stroke-width="2" stroke-linecap="round"/>
<path d="M20.6016 16.4199L16.7891 23.0234" stroke="#080808" stroke-width="2" stroke-linecap="round"/>
</svg>
