<svg width="64" height="64" viewBox="0 0 64 64" fill="none" xmlns="http://www.w3.org/2000/svg">
<circle cx="32" cy="32" r="32" fill="#3C2BFF"/>
<path d="M46.125 28.0547C46.125 40.4297 32.375 50.0547 32.375 50.0547C32.375 50.0547 18.625 40.4297 18.625 28.0547C18.625 24.408 20.0737 20.9106 22.6523 18.332C25.2309 15.7533 28.7283 14.3047 32.375 14.3047C36.0217 14.3047 39.5191 15.7533 42.0977 18.332C44.6763 20.9106 46.125 24.408 46.125 28.0547Z" fill="#080808" stroke="#080808" stroke-width="2" stroke-linecap="round" stroke-linejoin="round"/>
<path d="M32.375 33.5547C35.4126 33.5547 37.875 31.0923 37.875 28.0547C37.875 25.0171 35.4126 22.5547 32.375 22.5547C29.3374 22.5547 26.875 25.0171 26.875 28.0547C26.875 31.0923 29.3374 33.5547 32.375 33.5547Z" fill="#FFFAF3"/>
</svg>
