<svg width="90" height="80" viewBox="0 0 90 80" fill="none" xmlns="http://www.w3.org/2000/svg">
<ellipse cx="71.6135" cy="65.1926" rx="6.21504" ry="6.21504" fill="#080808"/>
<path d="M8.44141 22.8047C8.44141 20.0433 10.68 17.8047 13.4414 17.8047H52.5278C54.5311 17.8047 56.3411 19.0005 57.127 20.8433L66.2607 42.2602C66.7943 43.5115 67.8147 44.4913 69.0866 44.9737L75.1339 47.2675C77.0762 48.0043 78.3607 49.8652 78.3607 51.9425V60.1944C78.3607 62.9558 76.1221 65.1944 73.3607 65.1944H13.4414C10.68 65.1944 8.44141 62.9558 8.44141 60.1944V22.8047Z" fill="#0C0C0C" stroke="#080808" stroke-width="2"/>
<path d="M13.7812 22.8047C13.7812 20.0433 16.0198 17.8047 18.7813 17.8047H57.8676C59.871 17.8047 61.6809 19.0005 62.4668 20.8433L71.6005 42.2602C72.1341 43.5115 73.1546 44.4913 74.4265 44.9737L80.4738 47.2675C82.4161 48.0043 83.7005 49.8652 83.7005 51.9425V60.1944C83.7005 62.9558 81.4619 65.1944 78.7005 65.1944H18.7813C16.0198 65.1944 13.7812 62.9558 13.7812 60.1944V22.8047Z" fill="#FFFAF3" stroke="#080808" stroke-width="2"/>
<path d="M42.9219 24.4658C42.9219 23.3613 43.8173 22.4658 44.9219 22.4658H57.4798C58.3046 22.4658 59.0448 22.9722 59.3438 23.7409L65.9455 40.7167C66.4554 42.0278 65.4882 43.4416 64.0815 43.4416H44.9219C43.8173 43.4416 42.9219 42.5462 42.9219 41.4416V24.4658Z" fill="#FFC121"/>
<mask id="mask0_9877_8725" style="mask-type:alpha" maskUnits="userSpaceOnUse" x="42" y="22" width="25" height="22">
<path d="M42.918 24.4658C42.918 23.3613 43.8134 22.4658 44.918 22.4658H57.4759C58.3007 22.4658 59.0409 22.9722 59.3399 23.7409L65.9416 40.7167C66.4515 42.0278 65.4843 43.4416 64.0776 43.4416H44.918C43.8134 43.4416 42.918 42.5462 42.918 41.4416V24.4658Z" fill="#FFC121"/>
</mask>
<g mask="url(#mask0_9877_8725)">
<path d="M32.4336 22.4658H48.3596L56.5169 43.4416H32.4336V22.4658Z" fill="#080808"/>
</g>
<ellipse cx="24.6565" cy="65.1926" rx="6.21504" ry="6.21504" fill="#080808"/>
<ellipse cx="24.6588" cy="65.1929" rx="2.33064" ry="2.33064" fill="white"/>
<ellipse cx="57.2893" cy="65.1926" rx="6.21504" ry="6.21504" fill="#080808"/>
<ellipse cx="57.2877" cy="65.1929" rx="2.33064" ry="2.33064" fill="white"/>
<path d="M19.9761 5.47792C20.6634 4.7415 21.8853 5.36858 21.6877 6.35635L19.1813 18.8887L30.5683 23.1588C31.2353 23.409 31.4343 24.2566 30.9482 24.7774L11.9927 45.0869C11.3053 45.8233 10.0835 45.1963 10.281 44.2085L12.7875 31.6762L1.4005 27.406C0.73341 27.1559 0.534447 26.3082 1.02056 25.7874L19.9761 5.47792Z" fill="#FFC121"/>
<path d="M78.9219 8.58203L68.3451 14.6885" stroke="#080808" stroke-width="2" stroke-linecap="round"/>
<path d="M77.8438 18.9268H70.0718" stroke="#080808" stroke-width="2" stroke-linecap="round"/>
<path d="M69.4219 4.34375L65.5359 11.0744" stroke="#080808" stroke-width="2" stroke-linecap="round"/>
<circle cx="1.9375" cy="1.9375" r="1.9375" transform="matrix(-0.5 -0.866025 -0.866025 0.5 41.3984 11.0645)" fill="#080808" stroke="#080808" stroke-width="2"/>
<path d="M38.0117 72.0869L44.6152 75.8994" stroke="#080808" stroke-width="2" stroke-linecap="round"/>
<path d="M43.2188 70.6914L39.4062 77.2949" stroke="#080808" stroke-width="2" stroke-linecap="round"/>
</svg>
