<svg width="90" height="80" viewBox="0 0 90 80" fill="none" xmlns="http://www.w3.org/2000/svg">
<path d="M3.77344 24.798L10.3769 28.6105" stroke="#080808" stroke-width="2" stroke-linecap="round"/>
<path d="M8.98047 23.4025L5.16797 30.0059" stroke="#080808" stroke-width="2" stroke-linecap="round"/>
<circle cx="1.9375" cy="1.9375" r="1.9375" transform="matrix(0.410532 0.911846 0.911846 -0.410532 74.1523 68.6465)" fill="#080808" stroke="#080808" stroke-width="2"/>
<path d="M85.1328 2.46814L77.6952 12.1552" stroke="#080808" stroke-width="2" stroke-linecap="round"/>
<path d="M74.7383 2.18665L73.7216 9.89176" stroke="#080808" stroke-width="2" stroke-linecap="round"/>
<path d="M88.0938 12.442L80.9126 15.4141" stroke="#080808" stroke-width="2" stroke-linecap="round"/>
<mask id="path-7-inside-1_9877_8820" fill="white">
<path fill-rule="evenodd" clip-rule="evenodd" d="M50.4557 26.7508C57.5634 19.6431 69.0872 19.6431 76.1949 26.7508C82.3251 32.881 83.1681 42.2963 78.7239 49.3301L80.4311 55.7013C80.6406 56.483 79.9253 57.1983 79.1436 56.9889L72.6577 55.251C65.6676 59.4315 56.477 58.5112 50.4557 52.4899C43.3481 45.3823 43.3481 33.8585 50.4557 26.7508Z"/>
</mask>
<path fill-rule="evenodd" clip-rule="evenodd" d="M50.4557 26.7508C57.5634 19.6431 69.0872 19.6431 76.1949 26.7508C82.3251 32.881 83.1681 42.2963 78.7239 49.3301L80.4311 55.7013C80.6406 56.483 79.9253 57.1983 79.1436 56.9889L72.6577 55.251C65.6676 59.4315 56.477 58.5112 50.4557 52.4899C43.3481 45.3823 43.3481 33.8585 50.4557 26.7508Z" fill="#080808"/>
<path d="M76.1949 26.7508L77.6091 25.3366L77.6091 25.3366L76.1949 26.7508ZM50.4557 26.7508L49.0415 25.3366L49.0415 25.3366L50.4557 26.7508ZM78.7239 49.3301L76.7921 49.8477L76.5655 49.002L77.0332 48.2618L78.7239 49.3301ZM80.4311 55.7013L82.363 55.1837L82.363 55.1837L80.4311 55.7013ZM79.1436 56.9889L79.6612 55.057L79.6612 55.057L79.1436 56.9889ZM72.6577 55.251L71.6311 53.5345L72.3576 53.1L73.1753 53.3191L72.6577 55.251ZM50.4557 52.4899L51.87 51.0757L51.87 51.0757L50.4557 52.4899ZM74.7807 28.165C68.4541 21.8384 58.1966 21.8384 51.87 28.165L49.0415 25.3366C56.9302 17.4479 69.7204 17.4479 77.6091 25.3366L74.7807 28.165ZM77.0332 48.2618C80.9888 42.0012 80.2355 33.6198 74.7807 28.165L77.6091 25.3366C84.4147 32.1422 85.3475 42.5914 80.4147 50.3984L77.0332 48.2618ZM78.4993 56.219L76.7921 49.8477L80.6558 48.8124L82.363 55.1837L78.4993 56.219ZM79.6612 55.057C78.9557 54.868 78.3102 55.5135 78.4992 56.2189L82.363 55.1837C82.9709 57.4525 80.8948 59.5287 78.6259 58.9207L79.6612 55.057ZM73.1753 53.3191L79.6612 55.057L78.6259 58.9207L72.14 57.1828L73.1753 53.3191ZM51.87 51.0757C57.2276 56.4334 65.4089 57.2558 71.6311 53.5345L73.6842 56.9674C65.9262 61.6072 55.7264 60.589 49.0415 53.9041L51.87 51.0757ZM51.87 28.165C45.5433 34.4916 45.5433 44.7491 51.87 51.0757L49.0415 53.9041C41.1528 46.0154 41.1528 33.2253 49.0415 25.3366L51.87 28.165Z" fill="#080808" mask="url(#path-7-inside-1_9877_8820)"/>
<path d="M66.3254 42.036C66.428 41.9678 66.5461 41.9261 66.6689 41.915C66.7916 41.9038 66.9152 41.9235 67.0285 41.9721L71.3971 43.9295C71.5443 43.9924 71.6672 44.1013 71.7474 44.2399C71.8275 44.3785 71.8606 44.5393 71.8417 44.6983C71.6978 45.7738 71.1682 46.7605 70.3513 47.4748C69.5345 48.1891 68.486 48.5824 67.4009 48.5815C64.0596 48.5815 60.8553 47.2542 58.4926 44.8916C56.13 42.529 54.8027 39.3246 54.8027 35.9834C54.8019 34.8983 55.1952 33.8498 55.9095 33.0329C56.6238 32.2161 57.6104 31.6864 58.6859 31.5425C58.8449 31.5236 59.0058 31.5568 59.1443 31.6369C59.2829 31.7171 59.3919 31.8399 59.4548 31.9872L61.4121 36.3595C61.4602 36.4718 61.4798 36.5942 61.4691 36.7159C61.4585 36.8376 61.4179 36.9548 61.351 37.057L59.3714 39.4108C59.3012 39.5168 59.2597 39.6391 59.2509 39.7659C59.2421 39.8928 59.2664 40.0197 59.3214 40.1343C60.0875 41.7026 61.7086 43.3042 63.2815 44.0629C63.3967 44.1176 63.5242 44.1413 63.6514 44.1318C63.7786 44.1222 63.9011 44.0796 64.0068 44.0082L66.3254 42.036Z" fill="white"/>
<rect x="19.8047" y="5.49524" width="34.9375" height="58.389" rx="5" transform="rotate(11.4688 19.8047 5.49524)" fill="#FFFAF3" stroke="#080808" stroke-width="2"/>
<circle cx="26.8144" cy="58.798" r="1.9375" transform="rotate(11.4688 26.8144 58.798)" fill="#080808" stroke="#080808" stroke-width="2"/>
<rect x="19.8047" y="5.49524" width="34.9375" height="58.389" rx="5" transform="rotate(11.4688 19.8047 5.49524)" fill="#FFFAF3" stroke="#080808" stroke-width="2"/>
<rect x="22.9902" y="10.2867" width="26.7902" height="44.375" rx="3" transform="rotate(11.4688 22.9902 10.2867)" fill="#FE5E3A"/>
<circle cx="26.4676" cy="60.5095" r="2.15363" transform="rotate(11.4688 26.4676 60.5095)" fill="#080808"/>
</svg>
