<svg width="64" height="64" viewBox="0 0 64 64" fill="none" xmlns="http://www.w3.org/2000/svg">
<circle cx="32" cy="32" r="32" fill="#FE5E3A"/>
<path d="M46.0254 28.0547C46.0254 40.4297 32.2754 50.0547 32.2754 50.0547C32.2754 50.0547 18.5254 40.4297 18.5254 28.0547C18.5254 24.408 19.974 20.9106 22.5527 18.332C25.1313 15.7533 28.6287 14.3047 32.2754 14.3047C35.9221 14.3047 39.4195 15.7533 41.9981 18.332C44.5767 20.9106 46.0254 24.408 46.0254 28.0547Z" fill="#080808" stroke="#080808" stroke-width="2" stroke-linecap="round" stroke-linejoin="round"/>
<path d="M32.2754 33.5547C35.313 33.5547 37.7754 31.0923 37.7754 28.0547C37.7754 25.0171 35.313 22.5547 32.2754 22.5547C29.2378 22.5547 26.7754 25.0171 26.7754 28.0547C26.7754 31.0923 29.2378 33.5547 32.2754 33.5547Z" fill="#FFFAF3"/>
</svg>
