<svg width="90" height="80" viewBox="0 0 90 80" fill="none" xmlns="http://www.w3.org/2000/svg">
<path d="M60.1093 25.161C61.2894 24.4797 62.7984 24.884 63.4798 26.0641L71.3752 39.7395C72.0566 40.9196 71.6522 42.4286 70.4721 43.11L36.7111 62.6019C31.7546 65.4635 25.4168 63.7653 22.5552 58.8089V58.8089C19.6936 53.8524 21.3918 47.5146 26.3482 44.653L60.1093 25.161Z" fill="#080808" stroke="#080808" stroke-width="2"/>
<path d="M42.0515 14.4241C42.7328 13.244 44.2418 12.8397 45.4219 13.521L59.0973 21.4165C60.2774 22.0978 60.6817 23.6068 60.0004 24.7869L40.5084 58.548C37.6468 63.5045 31.309 65.2027 26.3526 62.3411V62.3411C21.3961 59.4795 19.6979 53.1417 22.5595 48.1852L42.0515 14.4241Z" fill="#FFFAF3" stroke="#080808" stroke-width="2"/>
<path d="M21.0859 14.684C21.0859 13.3213 22.1906 12.2167 23.5533 12.2167H39.3442C40.7069 12.2167 41.8116 13.3213 41.8116 14.684V53.6679C41.8116 59.3912 37.172 64.0308 31.4488 64.0308V64.0308C25.7255 64.0308 21.0859 59.3912 21.0859 53.6679V14.684Z" fill="#FFC121" stroke="#FFC121" stroke-width="2"/>
<circle cx="31.4504" cy="54.1535" r="3.15742" fill="#F7F7F7"/>
<path d="M5.26953 13.3029L11.873 17.1154" stroke="#080808" stroke-width="2" stroke-linecap="round"/>
<path d="M10.4766 11.9073L6.66406 18.5108" stroke="#080808" stroke-width="2" stroke-linecap="round"/>
<circle cx="1.9375" cy="1.9375" r="1.9375" transform="matrix(0.410532 0.911846 0.911846 -0.410532 58.2266 65.2188)" fill="#080808" stroke="#080808" stroke-width="2"/>
<path d="M78.3867 8.13525L69.7508 16.7711" stroke="#080808" stroke-width="2" stroke-linecap="round"/>
<path d="M80.0195 18.406L72.5125 20.4175" stroke="#080808" stroke-width="2" stroke-linecap="round"/>
<path d="M68.1133 6.49829L66.1018 14.0054" stroke="#080808" stroke-width="2" stroke-linecap="round"/>
</svg>
