<svg width="90" height="80" viewBox="0 0 90 80" fill="none" xmlns="http://www.w3.org/2000/svg">
<path d="M52.0305 58.531C51.7137 58.531 51.3945 58.531 51.0848 58.531L43.5071 62.7607C40.5572 61.7685 37.8211 60.2283 35.4424 58.2212L35.414 49.7097C35.2462 49.4449 35.0878 49.1777 34.9412 48.9034L27.4061 44.6122C26.8126 41.6102 26.8126 38.521 27.4061 35.519L34.9341 31.2396C35.0878 30.9677 35.2462 30.6981 35.4069 30.4333L35.4448 21.9218C37.8213 19.9089 40.5567 18.3631 43.5071 17.3657L51.0729 21.5955C51.3898 21.5955 51.709 21.5955 52.0187 21.5955L59.5845 17.3657C62.5344 18.358 65.2706 19.8981 67.6492 21.9052L67.6776 30.4168C67.8455 30.6816 68.0039 30.9488 68.1505 31.223L75.6808 35.5119C76.2743 38.5139 76.2743 41.6031 75.6808 44.6051L68.1528 48.8845C67.9991 49.1564 67.8407 49.426 67.68 49.6908L67.6421 58.2023C65.2672 60.2155 62.5334 61.7621 59.5845 62.7607L52.0305 58.531Z" fill="#080808"/>
<path d="M51.5439 50.3337C57.2161 50.3337 61.8143 45.7355 61.8143 40.0633C61.8143 34.3911 57.2161 29.7928 51.5439 29.7928C45.8717 29.7928 41.2734 34.3911 41.2734 40.0633C41.2734 45.7355 45.8717 50.3337 51.5439 50.3337Z" stroke="white" stroke-width="2" stroke-linecap="round" stroke-linejoin="round"/>
<path d="M35.573 43.4149C35.3362 43.4149 35.0977 43.4149 34.8662 43.4149L29.2026 46.5762C26.9978 45.8346 24.9528 44.6835 23.175 43.1834L23.1538 36.8218C23.0283 36.6239 22.9099 36.4242 22.8004 36.2192L17.1686 33.0119C16.725 30.7682 16.725 28.4594 17.1686 26.2156L22.7951 23.0172C22.9099 22.814 23.0283 22.6125 23.1485 22.4146L23.1768 16.053C24.953 14.5486 26.9975 13.3933 29.2026 12.6478L34.8573 15.8092C35.0941 15.8092 35.3327 15.8092 35.5642 15.8092L41.2189 12.6478C43.4237 13.3895 45.4687 14.5405 47.2465 16.0407L47.2677 22.4022C47.3932 22.6002 47.5116 22.7998 47.6211 23.0048L53.2493 26.2103C53.6929 28.4541 53.6929 30.7629 53.2493 33.0066L47.6229 36.2051C47.508 36.4083 47.3896 36.6097 47.2695 36.8077L47.2412 43.1692C45.4662 44.6739 43.4229 45.8298 41.2189 46.5762L35.573 43.4149Z" fill="#3C2BFF"/>
<path d="M35.209 36.6805C39.1128 36.6805 42.2774 33.5159 42.2774 29.6121C42.2774 25.7083 39.1128 22.5437 35.209 22.5437C31.3053 22.5437 28.1406 25.7083 28.1406 29.6121C28.1406 33.5159 31.3053 36.6805 35.209 36.6805Z" fill="#FFFAF3"/>
<path d="M5.55859 5.0835L14.1945 13.7194" stroke="#080808" stroke-width="2" stroke-linecap="round"/>
<path d="M3.92578 15.3542L11.4329 17.3658" stroke="#080808" stroke-width="2" stroke-linecap="round"/>
<path d="M15.832 3.44653L17.8435 10.9536" stroke="#080808" stroke-width="2" stroke-linecap="round"/>
<path d="M64.0195 68.5529L70.623 72.3654" stroke="#080808" stroke-width="2" stroke-linecap="round"/>
<path d="M69.2266 67.1573L65.4141 73.7608" stroke="#080808" stroke-width="2" stroke-linecap="round"/>
<circle cx="1.9375" cy="1.9375" r="1.9375" transform="matrix(0.410532 0.911846 0.911846 -0.410532 78.7266 28.6407)" fill="#080808" stroke="#080808" stroke-width="2"/>
</svg>
