<svg width="90" height="80" viewBox="0 0 90 80" fill="none" xmlns="http://www.w3.org/2000/svg">
<mask id="path-1-inside-1_9884_8545" fill="white">
<path fill-rule="evenodd" clip-rule="evenodd" d="M43.8112 21.0214C53.2573 11.5752 68.5725 11.5752 78.0187 21.0214C86.1657 29.1684 87.2861 41.6813 81.38 51.0291L83.6489 59.4968C83.9272 60.5357 82.9766 61.4864 81.9377 61.208L73.3178 58.8983C64.0278 64.4543 51.8135 63.2312 43.8112 55.2289C34.365 45.7827 34.365 30.4675 43.8112 21.0214Z"/>
</mask>
<path fill-rule="evenodd" clip-rule="evenodd" d="M43.8112 21.0214C53.2573 11.5752 68.5725 11.5752 78.0187 21.0214C86.1657 29.1684 87.2861 41.6813 81.38 51.0291L83.6489 59.4968C83.9272 60.5357 82.9766 61.4864 81.9377 61.208L73.3178 58.8983C64.0278 64.4543 51.8135 63.2312 43.8112 55.2289C34.365 45.7827 34.365 30.4675 43.8112 21.0214Z" fill="#080808"/>
<path d="M78.0187 21.0214L79.4329 19.6072L79.4329 19.6072L78.0187 21.0214ZM43.8112 21.0214L42.397 19.6072L42.397 19.6072L43.8112 21.0214ZM81.38 51.0291L79.4481 51.5468L79.2215 50.701L79.6892 49.9608L81.38 51.0291ZM83.6489 59.4968L81.717 60.0145L81.717 60.0145L83.6489 59.4968ZM81.9377 61.208L82.4553 59.2761L82.4553 59.2761L81.9377 61.208ZM73.3178 58.8983L72.2912 57.1818L73.0177 56.7473L73.8354 56.9664L73.3178 58.8983ZM43.8112 55.2289L42.397 56.6431L43.8112 55.2289ZM76.6044 22.4356C67.9394 13.7705 53.8905 13.7705 45.2254 22.4356L42.397 19.6072C52.6241 9.37998 69.2057 9.37998 79.4329 19.6072L76.6044 22.4356ZM79.6892 49.9608C85.1068 41.3862 84.0761 29.9072 76.6044 22.4356L79.4329 19.6072C88.2553 28.4296 89.4655 41.9763 83.0708 52.0974L79.6892 49.9608ZM81.717 60.0145L79.4481 51.5468L83.3118 50.5115L85.5807 58.9792L81.717 60.0145ZM82.4553 59.2761C82.0071 59.156 81.5969 59.5662 81.717 60.0145L85.5807 58.9792C86.2576 61.5052 83.9461 63.8167 81.4201 63.1398L82.4553 59.2761ZM73.8354 56.9664L82.4553 59.2761L81.4201 63.1398L72.8001 60.8301L73.8354 56.9664ZM45.2254 53.8147C52.5641 61.1534 63.7692 62.2786 72.2912 57.1818L74.3443 60.6147C64.2865 66.63 51.0628 65.309 42.397 56.6431L45.2254 53.8147ZM45.2254 22.4356C36.5603 31.1007 36.5603 45.1496 45.2254 53.8147L42.397 56.6431C32.1698 46.4159 32.1698 29.8344 42.397 19.6072L45.2254 22.4356Z" fill="#080808" mask="url(#path-1-inside-1_9884_8545)"/>
<path d="M49.1221 34.4915H72.6992" stroke="white" stroke-width="2" stroke-linecap="round"/>
<path d="M52.4023 41.7588L69.4102 41.7588" stroke="white" stroke-width="2" stroke-linecap="round"/>
<mask id="path-5-inside-2_9884_8545" fill="white">
<path fill-rule="evenodd" clip-rule="evenodd" d="M45.7383 29.5366C36.8528 20.6512 22.4467 20.6512 13.5613 29.5366C5.89818 37.1997 4.84401 48.9691 10.3988 57.762L8.26421 65.7283C8.00236 66.7055 8.89658 67.5997 9.8738 67.3379L17.9829 65.165C26.7214 70.3915 38.2109 69.241 45.7383 61.7136C54.6237 52.8282 54.6237 38.4221 45.7383 29.5366Z"/>
</mask>
<path fill-rule="evenodd" clip-rule="evenodd" d="M45.7383 29.5366C36.8528 20.6512 22.4467 20.6512 13.5613 29.5366C5.89818 37.1997 4.84401 48.9691 10.3988 57.762L8.26421 65.7283C8.00236 66.7055 8.89658 67.5997 9.8738 67.3379L17.9829 65.165C26.7214 70.3915 38.2109 69.241 45.7383 61.7136C54.6237 52.8282 54.6237 38.4221 45.7383 29.5366Z" fill="#FFFAF3"/>
<path d="M13.5613 29.5366L12.1471 28.1224L12.1471 28.1224L13.5613 29.5366ZM45.7383 29.5366L47.1525 28.1224L47.1525 28.1224L45.7383 29.5366ZM10.3988 57.762L12.3306 58.2796L12.5572 57.434L12.0896 56.6938L10.3988 57.762ZM8.26421 65.7283L6.33235 65.2106L6.33235 65.2106L8.26421 65.7283ZM9.8738 67.3379L9.35616 65.406L9.35616 65.406L9.8738 67.3379ZM17.9829 65.165L19.0094 63.4486L18.2829 63.0141L17.4652 63.2332L17.9829 65.165ZM45.7383 61.7136L47.1525 63.1278L47.1525 63.1278L45.7383 61.7136ZM14.9755 30.9508C23.0799 22.8465 36.2197 22.8465 44.3241 30.9508L47.1525 28.1224C37.486 18.4559 21.8136 18.4559 12.1471 28.1224L14.9755 30.9508ZM12.0896 56.6938C7.02333 48.6741 7.98778 37.9386 14.9755 30.9508L12.1471 28.1224C3.80859 36.4609 2.6647 49.2641 8.70791 58.8301L12.0896 56.6938ZM10.1961 66.2459L12.3306 58.2796L8.46692 57.2443L6.33235 65.2106L10.1961 66.2459ZM9.35616 65.406C9.86608 65.2694 10.3327 65.736 10.1961 66.2459L6.33235 65.2106C5.67203 67.675 7.92708 69.93 10.3914 69.2697L9.35616 65.406ZM17.4652 63.2332L9.35616 65.406L10.3914 69.2697L18.5005 67.0969L17.4652 63.2332ZM44.3241 60.2994C37.4603 67.1632 26.9801 68.2158 19.0094 63.4486L16.9563 66.8815C26.4627 72.5672 38.9615 71.3188 47.1525 63.1278L44.3241 60.2994ZM44.3241 30.9508C52.4284 39.0552 52.4284 52.195 44.3241 60.2994L47.1525 63.1278C56.819 53.4613 56.819 37.7889 47.1525 28.1224L44.3241 30.9508Z" fill="#080808" mask="url(#path-5-inside-2_9884_8545)"/>
<circle cx="29.8603" cy="45.6252" r="12.2353" fill="#FE5E3A"/>
<path d="M24.7305 46.5249L27.4294 49.5238L34.9265 41.7268" stroke="white" stroke-width="1.9381" stroke-linecap="round" stroke-linejoin="round"/>
<path d="M15.2109 6.42261L18.5436 18.1721" stroke="#080808" stroke-width="2" stroke-linecap="round"/>
<path d="M8.78125 14.5959L14.3564 20.0108" stroke="#080808" stroke-width="2" stroke-linecap="round"/>
<path d="M24.9805 10.0007L23.0787 17.5363" stroke="#080808" stroke-width="2" stroke-linecap="round"/>
<circle cx="70.7481" cy="8.81549" r="1.9375" transform="rotate(-15.8357 70.7481 8.81549)" fill="#080808" stroke="#080808" stroke-width="2"/>
<path d="M53.9883 65.6921L56.069 73.0278" stroke="#080808" stroke-width="2" stroke-linecap="round"/>
<path d="M58.6953 68.3188L51.3597 70.3996" stroke="#080808" stroke-width="2" stroke-linecap="round"/>
</svg>
