<svg width="90" height="80" viewBox="0 0 90 80" fill="none" xmlns="http://www.w3.org/2000/svg">
<path d="M65.8984 11.1445L54.2628 14.8552" stroke="#080808" stroke-width="2" stroke-linecap="round"/>
<path d="M57.5195 4.98145L52.2877 10.7287" stroke="#080808" stroke-width="2" stroke-linecap="round"/>
<path d="M62.6367 21.0244L55.0436 19.3671" stroke="#080808" stroke-width="2" stroke-linecap="round"/>
<path d="M9.35156 6.50977L6.2938 13.4948" stroke="#080808" stroke-width="2" stroke-linecap="round"/>
<path d="M11.3164 11.5312L4.33137 8.47348" stroke="#080808" stroke-width="2" stroke-linecap="round"/>
<circle cx="12.3143" cy="49.8348" r="1.9375" transform="rotate(23.6419 12.3143 49.8348)" fill="#080808" stroke="#080808" stroke-width="2"/>
<path d="M49.3852 61.022C49.1695 60.9354 48.9522 60.8481 48.7413 60.7634L42.4256 61.571C40.6886 60.0887 39.247 58.292 38.1764 56.275L40.4846 50.4724C40.4427 50.2462 40.4079 50.021 40.3831 49.7942L36.4265 44.8121C36.8434 42.606 37.6881 40.5028 38.9131 38.6213L45.2086 37.7663C45.3876 37.6232 45.5691 37.483 45.751 37.3467L48.1043 31.5622C50.2727 30.8417 52.5578 30.5373 54.8392 30.665L58.8336 35.6137C59.0492 35.7003 59.2666 35.7876 59.4774 35.8723L65.7851 35.0615C67.5221 36.5438 68.9638 38.3405 70.0344 40.3575L67.7261 46.1601C67.768 46.3863 67.8028 46.6115 67.8276 46.8383L71.7816 51.8175C71.3648 54.0236 70.52 56.1268 69.295 58.0083L62.9995 58.8633C62.8206 59.0064 62.639 59.1466 62.4571 59.2829L60.1038 65.0674C57.9364 65.7886 55.6523 66.094 53.3715 65.9675L49.3852 61.022Z" fill="#080808" stroke="#080808" stroke-width="2" stroke-linecap="round" stroke-linejoin="round"/>
<path d="M51.2972 55.3083C55.1589 56.8594 59.5469 54.9863 61.098 51.1245C62.6491 47.2628 60.776 42.8748 56.9142 41.3237C53.0525 39.7726 48.6645 41.6457 47.1134 45.5075C45.5623 49.3692 47.4354 53.7572 51.2972 55.3083Z" stroke="white" stroke-width="2" stroke-linecap="round" stroke-linejoin="round"/>
<path fill-rule="evenodd" clip-rule="evenodd" d="M39.627 49.7667C39.627 45.4959 42.1849 41.7332 44.8259 38.3769C47.2139 35.3421 48.6385 31.5135 48.6385 27.3522C48.6385 17.498 40.6501 9.50952 30.7958 9.50952C20.9416 9.50952 12.9531 17.498 12.9531 27.3522C12.9531 31.5121 14.3767 35.3396 16.7633 38.3739C19.4035 41.7307 21.9609 45.4935 21.9609 49.7642V52.8283C21.9609 57.7067 25.9156 61.6613 30.794 61.6613V61.6613C35.6723 61.6613 39.627 57.7066 39.627 52.8283V49.7667Z" fill="#3C2BFF"/>
<path d="M44.8259 38.3769L44.04 37.7586L44.8259 38.3769ZM47.6385 27.3522C47.6385 31.2813 46.2943 34.8937 44.04 37.7586L45.6118 38.9953C48.1336 35.7905 49.6385 31.7457 49.6385 27.3522H47.6385ZM30.7958 10.5095C40.0978 10.5095 47.6385 18.0502 47.6385 27.3522H49.6385C49.6385 16.9457 41.2023 8.50952 30.7958 8.50952V10.5095ZM13.9531 27.3522C13.9531 18.0502 21.4939 10.5095 30.7958 10.5095V8.50952C20.3893 8.50952 11.9531 16.9457 11.9531 27.3522H13.9531ZM17.5493 37.7557C15.2964 34.8913 13.9531 31.28 13.9531 27.3522H11.9531C11.9531 31.7443 13.457 35.7878 15.9773 38.9921L17.5493 37.7557ZM22.9609 52.8283V49.7642H20.9609V52.8283H22.9609ZM38.627 49.7667V52.8283H40.627V49.7667H38.627ZM20.9609 52.8283C20.9609 58.2589 25.3633 62.6613 30.794 62.6613V60.6613C26.4679 60.6613 22.9609 57.1544 22.9609 52.8283H20.9609ZM15.9773 38.9921C18.625 42.3584 20.9609 45.8746 20.9609 49.7642H22.9609C22.9609 45.1124 20.1821 41.1029 17.5493 37.7557L15.9773 38.9921ZM30.794 62.6613C36.2246 62.6613 40.627 58.2589 40.627 52.8283H38.627C38.627 57.1544 35.12 60.6613 30.794 60.6613V62.6613ZM44.04 37.7586C41.4065 41.1054 38.627 45.1148 38.627 49.7667H40.627C40.627 45.8771 42.9633 42.3611 45.6118 38.9953L44.04 37.7586Z" fill="#3C2BFF"/>
<path d="M30.793 52.3868L30.793 40.4922" stroke="white" stroke-width="2" stroke-linecap="round"/>
<path d="M27.1094 36.8088L30.7929 40.4923L34.4764 36.8088" stroke="white" stroke-width="2" stroke-linecap="round"/>
<path d="M21.957 52.3867H39.6231V52.8283C39.6231 57.7066 35.6684 61.6613 30.79 61.6613V61.6613C25.9117 61.6613 21.957 57.7066 21.957 52.8283V52.3867Z" fill="#FFFAF3" stroke="#080808" stroke-width="2"/>
</svg>
