<svg width="90" height="80" viewBox="0 0 90 80" fill="none" xmlns="http://www.w3.org/2000/svg">
<path d="M7.04297 4.97144L16.3515 12.8777" stroke="#080808" stroke-width="2" stroke-linecap="round"/>
<path d="M6.24609 15.3418L13.8917 16.7372" stroke="#080808" stroke-width="2" stroke-linecap="round"/>
<path d="M17.1523 2.50757L19.7667 9.82655" stroke="#080808" stroke-width="2" stroke-linecap="round"/>
<path d="M81.4922 49.6765L88.0956 53.489" stroke="#080808" stroke-width="2" stroke-linecap="round"/>
<path d="M86.6992 48.281L82.8867 54.8844" stroke="#080808" stroke-width="2" stroke-linecap="round"/>
<circle cx="14.1193" cy="66.6033" r="1.9375" transform="rotate(-60 14.1193 66.6033)" fill="#080808" stroke="#080808" stroke-width="2"/>
<path d="M44.6001 11.8365C45.6012 11.1772 46.8988 11.1772 47.8999 11.8365L52.4218 14.8143C52.9619 15.1699 53.6024 15.3415 54.2479 15.3036L59.6528 14.9857C60.8495 14.9153 61.9732 15.5641 62.5106 16.6356L64.9378 21.4754C65.2277 22.0534 65.6966 22.5223 66.2746 22.8122L71.1144 25.2394C72.1859 25.7768 72.8347 26.9005 72.7643 28.0972L72.4464 33.5021C72.4085 34.1476 72.5801 34.7881 72.9357 35.3282L75.9135 39.8501C76.5728 40.8512 76.5728 42.1488 75.9135 43.1499L72.9357 47.6718C72.5801 48.2119 72.4085 48.8524 72.4464 49.4979L72.7643 54.9028C72.8347 56.0995 72.1859 57.2232 71.1144 57.7606L66.2746 60.1878C65.6966 60.4777 65.2277 60.9466 64.9378 61.5246L62.5106 66.3644C61.9732 67.4359 60.8495 68.0847 59.6528 68.0143L54.2479 67.6964C53.6024 67.6585 52.9619 67.8301 52.4218 68.1857L47.8999 71.1635C46.8988 71.8228 45.6012 71.8228 44.6001 71.1635L40.0782 68.1857C39.5381 67.8301 38.8976 67.6585 38.2521 67.6964L32.8472 68.0143C31.6505 68.0847 30.5268 67.4359 29.9894 66.3644L27.5622 61.5246C27.2723 60.9466 26.8034 60.4777 26.2254 60.1878L21.3856 57.7606C20.3141 57.2232 19.6653 56.0995 19.7357 54.9028L20.0536 49.4979C20.0915 48.8524 19.9199 48.2119 19.5643 47.6718L16.5865 43.1499C15.9272 42.1488 15.9272 40.8512 16.5865 39.8501L19.5643 35.3282C19.9199 34.7881 20.0915 34.1476 20.0536 33.5021L19.7357 28.0972C19.6653 26.9005 20.3141 25.7768 21.3856 25.2394L26.2254 22.8122C26.8034 22.5223 27.2723 22.0534 27.5622 21.4754L29.9894 16.6356C30.5268 15.5641 31.6505 14.9153 32.8472 14.9857L38.2521 15.3036C38.8976 15.3415 39.5381 15.1699 40.0782 14.8143L44.6001 11.8365Z" fill="#080808" stroke="#080808" stroke-width="2"/>
<path d="M41.6001 8.83652C42.6012 8.17723 43.8988 8.17723 44.8999 8.83652L49.4218 11.8143C49.9619 12.1699 50.6024 12.3415 51.2479 12.3036L56.6528 11.9857C57.8495 11.9153 58.9732 12.5641 59.5106 13.6356L61.9378 18.4754C62.2277 19.0534 62.6966 19.5223 63.2746 19.8122L68.1144 22.2394C69.1859 22.7768 69.8347 23.9005 69.7643 25.0972L69.4464 30.5021C69.4085 31.1476 69.5801 31.7881 69.9357 32.3282L72.9135 36.8501C73.5728 37.8512 73.5728 39.1488 72.9135 40.1499L69.9357 44.6718C69.5801 45.2119 69.4085 45.8524 69.4464 46.4979L69.7643 51.9028C69.8347 53.0995 69.1859 54.2232 68.1144 54.7606L63.2746 57.1878C62.6966 57.4777 62.2277 57.9466 61.9378 58.5246L59.5106 63.3644C58.9732 64.4359 57.8495 65.0847 56.6528 65.0143L51.2479 64.6964C50.6024 64.6585 49.9619 64.8301 49.4218 65.1857L44.8999 68.1635C43.8988 68.8228 42.6012 68.8228 41.6001 68.1635L37.0782 65.1857C36.5381 64.8301 35.8976 64.6585 35.2521 64.6964L29.8472 65.0143C28.6505 65.0847 27.5268 64.4359 26.9894 63.3644L24.5622 58.5246C24.2723 57.9466 23.8034 57.4777 23.2254 57.1878L18.3856 54.7606C17.3141 54.2232 16.6653 53.0995 16.7357 51.9028L17.0536 46.4979C17.0915 45.8524 16.9199 45.2119 16.5643 44.6718L13.5865 40.1499C12.9272 39.1488 12.9272 37.8512 13.5865 36.8501L16.5643 32.3282C16.9199 31.7881 17.0915 31.1476 17.0536 30.5021L16.7357 25.0972C16.6653 23.9005 17.3141 22.7768 18.3856 22.2394L23.2254 19.8122C23.8034 19.5223 24.2723 19.0534 24.5622 18.4754L26.9894 13.6356C27.5268 12.5641 28.6505 11.9153 29.8472 11.9857L35.2521 12.3036C35.8976 12.3415 36.5381 12.1699 37.0782 11.8143L41.6001 8.83652Z" fill="#FFFAF3" stroke="#080808" stroke-width="2"/>
<circle cx="43.25" cy="38.5" r="19.375" stroke="#080808" stroke-width="2"/>
<path d="M42.3859 28.2961C42.7716 27.6338 43.7284 27.6338 44.1141 28.2961L46.8066 32.9188C46.9479 33.1614 47.1846 33.3334 47.459 33.3928L52.6875 34.525C53.4365 34.6872 53.7322 35.5971 53.2215 36.1686L49.6571 40.1578C49.4701 40.3672 49.3796 40.6455 49.4079 40.9248L49.9468 46.2472C50.024 47.0097 49.25 47.5721 48.5486 47.2631L43.6532 45.1058C43.3963 44.9926 43.1037 44.9926 42.8468 45.1058L37.9514 47.2631C37.25 47.5721 36.476 47.0097 36.5532 46.2472L37.0921 40.9248C37.1204 40.6455 37.0299 40.3672 36.8429 40.1578L33.2785 36.1686C32.7678 35.5971 33.0635 34.6872 33.8125 34.525L39.041 33.3928C39.3154 33.3334 39.5521 33.1614 39.6934 32.9188L42.3859 28.2961Z" fill="#FFC121"/>
</svg>
