<svg width="91" height="81" viewBox="0 0 91 81" fill="none" xmlns="http://www.w3.org/2000/svg">
<path d="M78.6055 6.11035L85.2089 9.92285" stroke="#080808" stroke-width="2" stroke-linecap="round"/>
<path d="M83.8125 4.71484L80 11.3183" stroke="#080808" stroke-width="2" stroke-linecap="round"/>
<circle cx="1.9375" cy="1.9375" r="1.9375" transform="matrix(0.410532 0.911846 0.911846 -0.410532 54.2148 40.6392)" fill="#080808" stroke="#080808" stroke-width="2"/>
<path d="M4.50781 5.4873L12.6973 14.5476" stroke="#080808" stroke-width="2" stroke-linecap="round"/>
<path d="M14.8516 4.37451L16.4821 11.9735" stroke="#080808" stroke-width="2" stroke-linecap="round"/>
<path d="M2.35938 15.6655L9.7555 18.053" stroke="#080808" stroke-width="2" stroke-linecap="round"/>
<path d="M15.8131 23.5751C16.359 21.3354 18.3655 19.7593 20.6708 19.7593H63.0526C66.2934 19.7593 68.6779 22.7949 67.9103 25.9435L58.5111 64.5006C57.9651 66.7403 55.9586 68.3164 53.6533 68.3164H11.2715C8.03078 68.3164 5.64626 65.2808 6.4138 62.1322L15.8131 23.5751Z" fill="#080808" stroke="#080808" stroke-width="2"/>
<path d="M17.1413 26.1329C16.2287 22.9388 18.6271 19.7593 21.949 19.7593H64.2604C66.4928 19.7593 68.4547 21.2392 69.068 23.3857L80.0843 61.9428C80.9969 65.1369 78.5986 68.3164 75.2767 68.3164H32.9653C30.7329 68.3164 28.771 66.8365 28.1577 64.69L17.1413 26.1329Z" fill="#FFFAF3" stroke="#080808" stroke-width="2"/>
<circle cx="25.7138" cy="24.6152" r="2.08102" fill="#080808"/>
<circle cx="37.5107" cy="24.6152" r="2.08102" fill="#080808"/>
<circle cx="48.6084" cy="24.6152" r="2.08102" fill="#080808"/>
<circle cx="59.706" cy="24.6152" r="2.08102" fill="#080808"/>
<path d="M17.1413 26.1329C16.2287 22.9388 18.6271 19.7593 21.949 19.7593H64.2604C66.4928 19.7593 68.4547 21.2392 69.068 23.3857L80.0843 61.9428C80.9969 65.1369 78.5986 68.3164 75.2767 68.3164H32.9653C30.7329 68.3164 28.771 66.8365 28.1577 64.69L17.1413 26.1329Z" stroke="#080808" stroke-width="2"/>
<path d="M25.719 24.6157C26.6794 24.6157 27.6182 24.3309 28.4167 23.7974C29.2152 23.2638 29.8376 22.5055 30.2051 21.6182C30.5726 20.7309 30.6688 19.7546 30.4814 18.8127C30.294 17.8708 29.8316 17.0056 29.1525 16.3265C28.4734 15.6474 27.6082 15.185 26.6663 14.9976C25.7244 14.8102 24.7481 14.9064 23.8608 15.2739C22.9735 15.6414 22.2152 16.2638 21.6816 17.0623C21.1481 17.8608 20.8633 18.7996 20.8633 19.76" stroke="#080808" stroke-width="2" stroke-linecap="round"/>
<path d="M37.512 24.6157C38.4723 24.6157 39.4111 24.3309 40.2097 23.7974C41.0082 23.2638 41.6305 22.5055 41.9981 21.6182C42.3656 20.7309 42.4617 19.7546 42.2744 18.8127C42.087 17.8708 41.6246 17.0056 40.9455 16.3265C40.2664 15.6474 39.4012 15.185 38.4593 14.9976C37.5174 14.8102 36.541 14.9064 35.6538 15.2739C34.7665 15.6414 34.0081 16.2638 33.4746 17.0623C32.941 17.8608 32.6563 18.7996 32.6563 19.76" stroke="#080808" stroke-width="2" stroke-linecap="round"/>
<path d="M49.301 24.6157C50.2614 24.6157 51.2002 24.3309 51.9987 23.7974C52.7972 23.2638 53.4196 22.5055 53.7871 21.6182C54.1546 20.7309 54.2508 19.7546 54.0634 18.8127C53.8761 17.8708 53.4136 17.0056 52.7345 16.3265C52.0555 15.6474 51.1902 15.185 50.2483 14.9976C49.3064 14.8102 48.3301 14.9064 47.4428 15.2739C46.5556 15.6414 45.7972 16.2638 45.2636 17.0623C44.7301 17.8608 44.4453 18.7996 44.4453 19.76" stroke="#080808" stroke-width="2" stroke-linecap="round"/>
<path d="M61.094 24.6157C62.0544 24.6157 62.9932 24.3309 63.7917 23.7974C64.5902 23.2638 65.2126 22.5055 65.5801 21.6182C65.9476 20.7309 66.0438 19.7546 65.8564 18.8127C65.6691 17.8708 65.2066 17.0056 64.5275 16.3265C63.8484 15.6474 62.9832 15.185 62.0413 14.9976C61.0994 14.8102 60.1231 14.9064 59.2358 15.2739C58.3485 15.6414 57.5902 16.2638 57.0566 17.0623C56.5231 17.8608 56.2383 18.7996 56.2383 19.76" stroke="#080808" stroke-width="2" stroke-linecap="round"/>
<circle cx="74.7969" cy="41.6152" r="16" fill="#3C2BFF"/>
<path d="M74.4297 32.1152V41.6819H84.5964" stroke="white" stroke-width="2" stroke-linecap="round" stroke-linejoin="round"/>
<circle cx="1.9375" cy="1.9375" r="1.9375" transform="matrix(0.410532 0.911846 0.911846 -0.410532 51.1133 75.1885)" fill="#080808" stroke="#080808" stroke-width="2"/>
</svg>
