<svg width="30" height="30" viewBox="0 0 30 30" fill="none" xmlns="http://www.w3.org/2000/svg">
<path d="M14.0697 2.35871C14.4027 1.51457 15.5973 1.51457 15.9303 2.35872L17.0118 5.10098C18.4348 8.7091 21.2909 11.5652 24.899 12.9882L27.6413 14.0697C28.4854 14.4027 28.4854 15.5973 27.6413 15.9303L24.899 17.0118C21.2909 18.4348 18.4348 21.2909 17.0118 24.899L15.9303 27.6413C15.5973 28.4854 14.4027 28.4854 14.0697 27.6413L12.9882 24.899C11.5652 21.2909 8.70909 18.4348 5.10098 17.0118L2.35871 15.9303C1.51457 15.5973 1.51457 14.4027 2.35872 14.0697L5.10098 12.9882C8.7091 11.5652 11.5652 8.70909 12.9882 5.10098L14.0697 2.35871Z" fill="#ECECEC"/>
</svg>
