<svg width="92" height="82" viewBox="0 0 92 82" fill="none" xmlns="http://www.w3.org/2000/svg">
<path d="M5.77344 1.94299L11.8799 12.5197" stroke="#080808" stroke-width="2" stroke-linecap="round"/>
<path d="M1.53516 11.4408L8.26582 15.3267" stroke="#080808" stroke-width="2" stroke-linecap="round"/>
<path d="M16.1211 3.02234V10.7942" stroke="#080808" stroke-width="2" stroke-linecap="round"/>
<path d="M84.3652 42.7092L90.9687 46.5217" stroke="#080808" stroke-width="2" stroke-linecap="round"/>
<path d="M89.5723 41.3137L85.7598 47.9172" stroke="#080808" stroke-width="2" stroke-linecap="round"/>
<circle cx="8.11542" cy="74.97" r="1.9375" transform="rotate(-60 8.11542 74.97)" fill="#080808" stroke="#080808" stroke-width="2"/>
<rect x="16.4805" y="18.8311" width="60.285" height="47.7563" stroke="#080808" stroke-width="2"/>
<path d="M25.3617 53.1491C24.2591 53.1491 23.5156 52.0221 23.9494 51.0084L32.4362 31.1786C32.6781 30.6134 33.2337 30.2468 33.8485 30.2468H38.9228C39.5369 30.2468 40.0921 30.6126 40.3344 31.177L48.8484 51.0068C49.2837 52.0206 48.5401 53.1491 47.4368 53.1491H44.8602C44.2373 53.1491 43.676 52.773 43.4393 52.1968L41.9457 48.5624H30.793L29.3276 52.1885C29.093 52.7691 28.5295 53.1491 27.9033 53.1491H25.3617ZM32.3324 44.4783H40.4691L37.4846 37.3783L36.4793 34.6765H36.2908L35.2855 37.3469L32.3324 44.4783Z" fill="#080808"/>
<path d="M58.4977 53.4633C53.534 53.4633 50.2039 50.0704 50.2039 44.7296C50.2039 39.3889 53.534 36.0274 58.4977 36.0274C61.7336 36.0274 63.8385 37.2212 64.8124 38.9491H65.0323L65.1034 37.7551C65.1517 36.9435 65.8239 36.3101 66.6369 36.3101H68.6797C69.5281 36.3101 70.2159 36.9979 70.2159 37.8464V51.6129C70.2159 52.4613 69.5281 53.1491 68.6797 53.1491H66.4429C65.5944 53.1491 64.9066 52.4613 64.9066 51.6129V50.4473H64.6867C63.65 52.3009 61.2624 53.4633 58.4977 53.4633ZM60.1314 49.442C63.1159 49.442 64.8752 47.5257 64.8752 45.1066V44.2898C64.8752 41.9336 63.1159 40.0486 60.1314 40.0486C57.3982 40.0486 55.5446 41.7137 55.5446 44.7296C55.5446 47.7142 57.3668 49.442 60.1314 49.442Z" fill="#080808"/>
<path d="M25.3617 53.149C24.2591 53.149 23.5156 52.0219 23.9494 51.0083L32.4362 31.1785C32.6781 30.6133 33.2337 30.2467 33.8485 30.2467H38.9228C39.5369 30.2467 40.0921 30.6125 40.3344 31.1769L48.8484 51.0067C49.2837 52.0205 48.5401 53.149 47.4368 53.149H44.8602C44.2373 53.149 43.676 52.7729 43.4393 52.1967L41.9457 48.5623H30.793L29.3276 52.1884C29.093 52.7689 28.5295 53.149 27.9033 53.149H25.3617ZM32.3324 44.4782H40.4691L37.4846 37.3781L36.4793 34.6764H36.2908L35.2855 37.3467L32.3324 44.4782Z" fill="#3C2BFF"/>
<mask id="path-10-inside-1_9867_11871" fill="white">
<rect x="73.2051" y="15.2706" width="7.12054" height="7.12054" rx="1"/>
</mask>
<rect x="73.2051" y="15.2706" width="7.12054" height="7.12054" rx="1" fill="#080808" stroke="#080808" stroke-width="4" mask="url(#path-10-inside-1_9867_11871)"/>
<mask id="path-11-inside-2_9867_11871" fill="white">
<rect x="12.9219" y="15.2709" width="7.12054" height="7.12054" rx="1"/>
</mask>
<rect x="12.9219" y="15.2709" width="7.12054" height="7.12054" rx="1" fill="#080808" stroke="#080808" stroke-width="4" mask="url(#path-11-inside-2_9867_11871)"/>
<mask id="path-12-inside-3_9867_11871" fill="white">
<rect x="12.9219" y="63.0271" width="7.12054" height="7.12054" rx="1"/>
</mask>
<rect x="12.9219" y="63.0271" width="7.12054" height="7.12054" rx="1" fill="#080808" stroke="#080808" stroke-width="4" mask="url(#path-12-inside-3_9867_11871)"/>
<mask id="path-13-inside-4_9867_11871" fill="white">
<rect x="73.2051" y="63.0271" width="7.12054" height="7.12054" rx="1"/>
</mask>
<rect x="73.2051" y="63.0271" width="7.12054" height="7.12054" rx="1" fill="#080808" stroke="#080808" stroke-width="4" mask="url(#path-13-inside-4_9867_11871)"/>
</svg>
