<svg width="90" height="80" viewBox="0 0 90 80" fill="none" xmlns="http://www.w3.org/2000/svg">
<mask id="path-1-inside-1_9867_11651" fill="white">
<path fill-rule="evenodd" clip-rule="evenodd" d="M46.2213 22.8964C55.6675 13.4502 70.9827 13.4502 80.4288 22.8964C88.5759 31.0434 89.6963 43.5563 83.7901 52.9041L86.059 61.3718C86.3374 62.4107 85.3867 63.3614 84.3479 63.083L75.7279 60.7733C66.438 66.3293 54.2236 65.1062 46.2213 57.1039C36.7752 47.6577 36.7752 32.3425 46.2213 22.8964Z"/>
</mask>
<path fill-rule="evenodd" clip-rule="evenodd" d="M46.2213 22.8964C55.6675 13.4502 70.9827 13.4502 80.4288 22.8964C88.5759 31.0434 89.6963 43.5563 83.7901 52.9041L86.059 61.3718C86.3374 62.4107 85.3867 63.3614 84.3479 63.083L75.7279 60.7733C66.438 66.3293 54.2236 65.1062 46.2213 57.1039C36.7752 47.6577 36.7752 32.3425 46.2213 22.8964Z" fill="#080808"/>
<path d="M80.4288 22.8964L81.843 21.4822L81.843 21.4822L80.4288 22.8964ZM46.2213 22.8964L44.8071 21.4822L44.8071 21.4822L46.2213 22.8964ZM83.7901 52.9041L81.8583 53.4218L81.6317 52.576L82.0993 51.8358L83.7901 52.9041ZM86.059 61.3718L84.1272 61.8895L84.1272 61.8895L86.059 61.3718ZM84.3479 63.083L84.8655 61.1511L84.8655 61.1511L84.3479 63.083ZM75.7279 60.7733L74.7014 59.0568L75.4279 58.6223L76.2456 58.8414L75.7279 60.7733ZM46.2213 57.1039L44.8071 58.5181L46.2213 57.1039ZM79.0146 24.3106C70.3495 15.6455 56.3006 15.6455 47.6355 24.3106L44.8071 21.4822C55.0343 11.255 71.6158 11.255 81.843 21.4822L79.0146 24.3106ZM82.0993 51.8358C87.517 43.2612 86.4862 31.7822 79.0146 24.3106L81.843 21.4822C90.6655 30.3046 91.8756 43.8513 85.4809 53.9724L82.0993 51.8358ZM84.1272 61.8895L81.8583 53.4218L85.722 52.3865L87.9909 60.8542L84.1272 61.8895ZM84.8655 61.1511C84.4173 61.031 84.0071 61.4412 84.1272 61.8895L87.9909 60.8542C88.6677 63.3802 86.3562 65.6917 83.8302 65.0148L84.8655 61.1511ZM76.2456 58.8414L84.8655 61.1511L83.8302 65.0148L75.2103 62.7051L76.2456 58.8414ZM47.6355 55.6897C54.9743 63.0284 66.1793 64.1536 74.7014 59.0568L76.7545 62.4897C66.6967 68.505 53.473 67.184 44.8071 58.5181L47.6355 55.6897ZM47.6355 24.3106C38.9704 32.9757 38.9704 47.0246 47.6355 55.6897L44.8071 58.5181C34.5799 48.2909 34.5799 31.7093 44.8071 21.4822L47.6355 24.3106Z" fill="#080808" mask="url(#path-1-inside-1_9867_11651)"/>
<path d="M51.5323 36.3665H75.1094" stroke="white" stroke-width="2" stroke-linecap="round"/>
<path d="M54.8124 43.6338L71.8203 43.6338" stroke="white" stroke-width="2" stroke-linecap="round"/>
<path d="M39.1445 2.43054L34.2469 13.6185" stroke="#080808" stroke-width="2" stroke-linecap="round"/>
<path d="M28.9844 4.65076L29.8451 12.3749" stroke="#080808" stroke-width="2" stroke-linecap="round"/>
<path d="M44.4102 11.4034L38.1512 16.0109" stroke="#080808" stroke-width="2" stroke-linecap="round"/>
<path d="M73.1973 5.72693L70.1395 12.712" stroke="#080808" stroke-width="2" stroke-linecap="round"/>
<path d="M75.1621 10.7484L68.1771 7.69065" stroke="#080808" stroke-width="2" stroke-linecap="round"/>
<circle cx="12.4784" cy="13.7352" r="1.9375" transform="rotate(23.6419 12.4784 13.7352)" fill="#080808" stroke="#080808" stroke-width="2"/>
<path d="M21.5365 65.8783H40.8329C43.5916 65.8783 45.9948 63.9973 46.6573 61.3194L51.1122 43.3136C52.0483 39.5303 49.1853 35.8726 45.2879 35.8726H30.9179L33.8546 24.3345C34.3263 22.4815 33.4206 20.5539 31.6932 19.7341L30.9338 19.3737C29.2159 18.5584 27.1614 19.0653 26.0198 20.586L12.1194 39.1034L10.9297 34.4473L12.9125 58.818L14.5376 61.7532C15.9468 64.2987 18.627 65.8783 21.5365 65.8783Z" fill="#FFFAF3" stroke="#080808" stroke-width="2" stroke-linejoin="round"/>
<rect x="1.50391" y="32.0787" width="12.9542" height="35.6901" rx="4" fill="#3C2BFF"/>
</svg>
