<svg width="168" height="37" viewBox="0 0 168 37" fill="none" xmlns="http://www.w3.org/2000/svg">
<path fill-rule="evenodd" clip-rule="evenodd" d="M10.774 5.24698V13.7916C5.61967 13.792 1.44141 17.9705 1.44141 23.1249C1.44141 28.2796 5.62008 32.4582 10.7747 32.4582H19.2192C19.7101 32.4582 20.1081 32.0603 20.1081 31.5694V23.1249C25.2627 23.1249 29.4413 18.9462 29.4413 13.7916C29.4413 8.63693 25.262 4.45825 20.1073 4.45825H11.5627C11.1271 4.45825 10.774 4.81138 10.774 5.24698ZM20.1081 23.1249H11.6635C11.1726 23.1249 10.7746 22.727 10.7746 22.236L10.774 13.7916L19.2238 13.7916C19.7001 13.794 20.0879 14.1711 20.1073 14.6432L20.1081 23.1249Z" fill="#ECECEC"/>
<path d="M50.1416 27L40.9579 5.93824H46.502L52.4833 20.7647L53.3015 22.9795H53.499L54.3031 20.7929L60.3127 5.93824H65.8568L56.6449 27H50.1416ZM73.1924 27.2539C70.3428 27.2539 68.0763 26.5533 66.3928 25.152C64.7188 23.7413 63.8818 21.8039 63.8818 19.3399C63.8818 16.8288 64.7235 14.8492 66.4069 13.4008C68.0904 11.9525 70.3334 11.2284 73.136 11.2284C76.089 11.2284 78.3603 12.0325 79.9497 13.6407C81.5391 15.2489 82.2397 17.4684 82.0516 20.2992H68.7628C68.791 21.4559 69.2048 22.3635 70.0042 23.0218C70.813 23.6707 71.9134 23.9952 73.3053 23.9952C74.3586 23.9952 75.2567 23.8212 75.9997 23.4732C76.7521 23.1159 77.2317 22.6456 77.4386 22.0625H82.0234C81.8071 23.6143 80.8807 24.8698 79.2443 25.8291C77.6079 26.779 75.5906 27.2539 73.1924 27.2539ZM73.1078 14.5435C71.8946 14.5435 70.8977 14.8163 70.1171 15.3617C69.3459 15.8978 68.8663 16.6549 68.6782 17.6329H77.227C77.1424 16.6643 76.7474 15.9072 76.042 15.3617C75.3367 14.8163 74.3586 14.5435 73.1078 14.5435ZM84.2946 27V11.5105H88.9781L89.1474 14.2049H89.4155C89.8951 13.2833 90.6569 12.5591 91.7008 12.0325C92.7541 11.4964 93.8874 11.2284 95.1006 11.2284C96.1351 11.2284 97.0474 11.3553 97.8373 11.6093C98.6367 11.8632 99.3421 12.2676 99.9534 12.8225C100.574 13.3679 101.044 14.1203 101.364 15.0796C101.684 16.0295 101.844 17.1721 101.844 18.5076V27H96.9768V19.3399C96.9768 17.8728 96.6994 16.7724 96.1445 16.0389C95.599 15.2959 94.6962 14.9244 93.436 14.9244C92.1475 14.9244 91.1083 15.3288 90.3183 16.1376C89.5377 16.9464 89.1474 17.995 89.1474 19.2835V27H84.2946ZM110.125 27C108.798 27 107.764 26.6802 107.021 26.0407C106.278 25.4012 105.907 24.4419 105.907 23.1629V15.1783H103.015V11.5105H105.907V7.58876L110.703 6.6577V11.5105H114.54V15.1783H110.703V21.6252C110.703 22.0861 110.811 22.4105 111.027 22.5986C111.253 22.7773 111.615 22.8666 112.114 22.8666H114.54V27H110.125ZM123.216 27.2539C122.172 27.2539 121.25 27.127 120.451 26.873C119.651 26.6191 118.946 26.2194 118.335 25.6739C117.733 25.1191 117.272 24.3714 116.952 23.4309C116.642 22.4811 116.487 21.3478 116.487 20.0311V11.5105H121.368V19.1706C121.368 20.6283 121.641 21.7287 122.186 22.4717C122.741 23.2146 123.644 23.5861 124.895 23.5861C126.183 23.5861 127.218 23.1817 127.998 22.3729C128.779 21.5641 129.169 20.5061 129.169 19.1988V11.5105H134.05V27H129.381L129.169 24.2773H128.943C128.464 25.1802 127.702 25.9044 126.658 26.4498C125.614 26.9859 124.467 27.2539 123.216 27.2539ZM136.886 27V11.5105H141.287L141.456 13.9651H141.654C141.973 13.1281 142.5 12.4745 143.234 12.0043C143.977 11.5246 144.856 11.2848 145.872 11.2848C146.37 11.2848 146.793 11.313 147.141 11.3694V15.7285C146.558 15.6533 146.097 15.6156 145.759 15.6156C143.135 15.6156 141.795 16.9558 141.738 19.6361V27H136.886ZM157.101 27.2539C154.251 27.2539 151.985 26.5533 150.301 25.152C148.627 23.7413 147.79 21.8039 147.79 19.3399C147.79 16.8288 148.632 14.8492 150.315 13.4008C151.999 11.9525 154.242 11.2284 157.044 11.2284C159.998 11.2284 162.269 12.0325 163.858 13.6407C165.448 15.2489 166.148 17.4684 165.96 20.2992H152.671C152.699 21.4559 153.113 22.3635 153.913 23.0218C154.721 23.6707 155.822 23.9952 157.214 23.9952C158.267 23.9952 159.165 23.8212 159.908 23.4732C160.661 23.1159 161.14 22.6456 161.347 22.0625H165.932C165.716 23.6143 164.789 24.8698 163.153 25.8291C161.516 26.779 159.499 27.2539 157.101 27.2539ZM157.016 14.5435C155.803 14.5435 154.806 14.8163 154.026 15.3617C153.254 15.8978 152.775 16.6549 152.587 17.6329H161.135C161.051 16.6643 160.656 15.9072 159.95 15.3617C159.245 14.8163 158.267 14.5435 157.016 14.5435Z" fill="#ECECEC"/>
</svg>
