<svg width="90" height="80" viewBox="0 0 90 80" fill="none" xmlns="http://www.w3.org/2000/svg">
<mask id="path-1-inside-1_9892_10724" fill="white">
<path fill-rule="evenodd" clip-rule="evenodd" d="M50.1556 21.4507C57.9984 13.6079 70.7142 13.6079 78.5571 21.4507C85.3213 28.215 86.2516 38.604 81.3479 46.3652L83.2317 53.3956C83.4628 54.2581 82.6735 55.0474 81.8109 54.8163L74.6543 52.8987C66.9411 57.5119 56.7997 56.4964 50.1556 49.8522C42.3127 42.0094 42.3127 29.2936 50.1556 21.4507Z"/>
</mask>
<path fill-rule="evenodd" clip-rule="evenodd" d="M50.1556 21.4507C57.9984 13.6079 70.7142 13.6079 78.5571 21.4507C85.3213 28.215 86.2516 38.604 81.3479 46.3652L83.2317 53.3956C83.4628 54.2581 82.6735 55.0474 81.8109 54.8163L74.6543 52.8987C66.9411 57.5119 56.7997 56.4964 50.1556 49.8522C42.3127 42.0094 42.3127 29.2936 50.1556 21.4507Z" fill="#FE5E3A"/>
<path d="M78.5571 21.4507L79.9713 20.0365L79.9713 20.0365L78.5571 21.4507ZM50.1556 21.4507L51.5698 22.865L51.5698 22.865L50.1556 21.4507ZM81.3479 46.3652L79.416 46.8829L79.1894 46.0372L79.6571 45.297L81.3479 46.3652ZM83.2317 53.3956L85.1635 52.8779L85.1635 52.8779L83.2317 53.3956ZM81.8109 54.8163L81.2933 56.7482L81.2933 56.7482L81.8109 54.8163ZM74.6543 52.8987L73.6277 51.1823L74.3542 50.7477L75.1719 50.9668L74.6543 52.8987ZM50.1556 49.8522L48.7414 51.2664L50.1556 49.8522ZM77.1428 22.865C70.081 15.8032 58.6316 15.8032 51.5698 22.865L48.7414 20.0365C57.3653 11.4126 71.3474 11.4126 79.9713 20.0365L77.1428 22.865ZM79.6571 45.297C84.0723 38.3089 83.2317 28.9538 77.1428 22.865L79.9713 20.0365C87.4109 27.4762 88.4309 38.899 83.0387 47.4335L79.6571 45.297ZM81.2998 53.9132L79.416 46.8829L83.2797 45.8476L85.1635 52.8779L81.2998 53.9132ZM82.3286 52.8845C81.704 52.7171 81.1325 53.2886 81.2998 53.9132L85.1635 52.8779C85.7931 55.2277 83.643 57.3778 81.2933 56.7482L82.3286 52.8845ZM75.1719 50.9668L82.3286 52.8845L81.2933 56.7482L74.1366 54.8305L75.1719 50.9668ZM51.5698 48.438C57.5504 54.4186 66.6824 55.3362 73.6277 51.1823L75.6809 54.6151C67.1998 59.6876 56.0491 58.5742 48.7414 51.2664L51.5698 48.438ZM51.5698 22.865C44.508 29.9268 44.508 41.3762 51.5698 48.438L48.7414 51.2664C40.1175 42.6425 40.1175 28.6604 48.7414 20.0365L51.5698 22.865Z" fill="#FE5E3A" mask="url(#path-1-inside-1_9892_10724)"/>
<path d="M54.5613 32.6343H74.1367" stroke="white" stroke-width="2" stroke-linecap="round"/>
<path d="M57.2851 38.668L71.4062 38.668" stroke="white" stroke-width="2" stroke-linecap="round"/>
<path d="M7.95312 10.0386L14.5566 13.8511" stroke="#080808" stroke-width="2" stroke-linecap="round"/>
<path d="M13.1602 8.64307L9.34766 15.2465" stroke="#080808" stroke-width="2" stroke-linecap="round"/>
<circle cx="1.9375" cy="1.9375" r="1.9375" transform="matrix(0.410532 0.911846 0.911846 -0.410532 62.7656 69.1465)" fill="#080808" stroke="#080808" stroke-width="2"/>
<path d="M86.0391 3.31396L76.878 11.3906" stroke="#080808" stroke-width="2" stroke-linecap="round"/>
<path d="M75.8906 1.03955L73.4118 8.40553" stroke="#080808" stroke-width="2" stroke-linecap="round"/>
<path d="M87.0273 13.6714L79.4088 15.2076" stroke="#080808" stroke-width="2" stroke-linecap="round"/>
<path d="M9.37023 45.717C9.37023 45.717 0.18883 35.3269 7.29533 27.738C14.4018 20.1491 31.2603 18.9301 31.2603 11.6265C31.2603 4.32287 40.312 -4.67178 43.9535 11.6265C56.6466 -5.40837 72.6389 24.2626 48.9955 27.9663L17.3534 48.3106L9.37023 45.7222V45.717Z" fill="#080808" stroke="#080808" stroke-width="2" stroke-linecap="round" stroke-linejoin="round"/>
<path d="M32.6514 63.7839L34.4203 75.9402C34.4203 75.9402 26.738 78.5027 19.4344 77.1125V55.2665C4.13725 58.5655 4.59891 38.7192 18.3969 42.2258C18.3969 42.2258 12.4835 28.49 23.0914 27.9713C33.6993 27.4525 48.9964 27.9713 48.9964 27.9713C48.9964 27.9713 55.6049 35.97 57.3427 48.6579C59.0804 61.3459 53.6909 66.5643 32.6566 63.7839H32.6514Z" fill="#FFFAF3" stroke="#080808" stroke-width="2" stroke-linecap="round" stroke-linejoin="round"/>
<path d="M56.9214 41.6558C56.4805 41.6558 56.0396 41.4691 55.7335 41.106C53.1555 38.0559 50.0691 38.834 49.9394 38.8703C49.1146 39.0881 48.2587 38.6057 48.0305 37.7861C47.8022 36.9614 48.2691 36.1158 49.0887 35.8772C49.2962 35.8202 54.1929 34.4715 58.1041 39.0985C58.6591 39.7573 58.5761 40.7377 57.9225 41.2927C57.632 41.5417 57.2741 41.661 56.9162 41.661L56.9214 41.6558Z" fill="#080808"/>
<path d="M33.6066 41.9195C33.3472 41.9195 33.0879 41.8573 32.8441 41.7172C32.0971 41.297 31.8274 40.3478 32.2527 39.5956C32.3565 39.4089 34.9034 35.0153 40.9362 35.5652C41.7921 35.643 42.4249 36.4003 42.3471 37.2562C42.2693 38.1121 41.5119 38.7397 40.656 38.6671C36.6048 38.2988 34.9812 41.0947 34.9657 41.1259C34.6804 41.6342 34.1513 41.9195 33.6066 41.9195Z" fill="#080808"/>
<path d="M38.5894 45.3438C39.3572 45.3438 39.9796 44.7214 39.9796 43.9537C39.9796 43.1859 39.3572 42.5635 38.5894 42.5635C37.8216 42.5635 37.1992 43.1859 37.1992 43.9537C37.1992 44.7214 37.8216 45.3438 38.5894 45.3438Z" fill="#080808"/>
<path d="M52.4175 43.9532C53.1853 43.9532 53.8077 43.3308 53.8077 42.563C53.8077 41.7953 53.1853 41.1729 52.4175 41.1729C51.6497 41.1729 51.0273 41.7953 51.0273 42.563C51.0273 43.3308 51.6497 43.9532 52.4175 43.9532Z" fill="#080808"/>
<path d="M44.2734 41.7539C44.2734 41.7539 56.4427 45.5769 46.8256 46.3913" stroke="#080808" stroke-width="2" stroke-linecap="round" stroke-linejoin="round"/>
<path d="M45.159 56.883C45.159 56.883 44.0079 58.5673 40.6726 57.5129C38.0417 56.6812 37.332 54.4087 37.332 54.4087" stroke="#080808" stroke-width="2" stroke-linecap="round"/>
</svg>
