<svg width="172" height="37" viewBox="0 0 172 37" fill="none" xmlns="http://www.w3.org/2000/svg">
<path d="M1.36719 18.4583C1.36719 12.9115 4.59292 8.11812 9.27079 5.85176V18.5207C9.30434 21.8596 12.0216 24.5559 15.3684 24.556L27.973 24.5561C25.7064 29.2332 20.9134 32.4583 15.3672 32.4583C7.6352 32.4583 1.36719 26.1902 1.36719 18.4583Z" fill="#ECECEC"/>
<path d="M29.3672 18.4583C29.3672 19.253 29.301 20.0322 29.1738 20.7908H21.0044C21.3022 20.0722 21.4665 19.2844 21.4665 18.4582C21.4665 15.0904 18.7364 12.3603 15.3686 12.3603C14.5424 12.3603 13.7546 12.5247 13.0361 12.8224V4.65145C13.7942 4.52439 14.573 4.45825 15.3672 4.45825C23.0992 4.45825 29.3672 10.7263 29.3672 18.4583Z" fill="#ECECEC"/>
<path d="M41.0312 27V5.93824H46.0533V27H41.0312ZM49.1991 27V11.5105H53.8826L54.0519 14.2049H54.32C54.7996 13.2833 55.5614 12.5591 56.6053 12.0325C57.6586 11.4964 58.7919 11.2284 60.0051 11.2284C61.0396 11.2284 61.9519 11.3553 62.7418 11.6093C63.5412 11.8632 64.2466 12.2676 64.8579 12.8225C65.4786 13.3679 65.9488 14.1203 66.2686 15.0796C66.5884 16.0295 66.7482 17.1721 66.7482 18.5076V27H61.8813V19.3399C61.8813 17.8728 61.6039 16.7724 61.049 16.0389C60.5035 15.2959 59.6007 14.9244 58.3405 14.9244C57.052 14.9244 56.0128 15.3288 55.2228 16.1376C54.4422 16.9464 54.0519 17.995 54.0519 19.2835V27H49.1991ZM76.5808 27.2821C73.9663 27.2821 71.9443 26.826 70.5148 25.9138C69.0947 24.9921 68.3329 23.7178 68.2295 22.0908H72.9694C73.1105 23.5955 74.3613 24.3479 76.7219 24.3479C78.9132 24.3479 80.0088 23.7789 80.0088 22.6409C80.0088 22.0202 79.7596 21.6017 79.2611 21.3854C78.7721 21.1597 77.7799 20.981 76.2846 20.8493C73.4914 20.586 71.5352 20.1252 70.4161 19.4669C69.3063 18.8085 68.7514 17.727 68.7514 16.2222C68.7514 14.6893 69.4474 13.4761 70.8393 12.5826C72.2312 11.6798 74.1638 11.2284 76.6372 11.2284C78.8944 11.2284 80.7001 11.661 82.0543 12.5262C83.4086 13.382 84.1657 14.6046 84.3256 16.194H79.7267C79.642 15.5169 79.3223 15.009 78.7674 14.6705C78.2219 14.3225 77.5025 14.1485 76.609 14.1485C75.6309 14.1485 74.8598 14.2896 74.2955 14.5717C73.7406 14.8445 73.4632 15.2583 73.4632 15.8131C73.4632 16.1047 73.529 16.3445 73.6607 16.5326C73.7923 16.7207 74.0275 16.8759 74.366 16.9981C74.714 17.1204 75.1043 17.2191 75.5369 17.2944C75.9695 17.3602 76.5667 17.426 77.3285 17.4919C78.4759 17.5953 79.4398 17.7223 80.2204 17.8728C81.0104 18.0138 81.7111 18.2019 82.3224 18.437C82.9337 18.6722 83.4133 18.9684 83.7613 19.3258C84.1093 19.6738 84.3679 20.0923 84.5372 20.5813C84.7159 21.0704 84.8052 21.6581 84.8052 22.3447C84.8052 23.8776 84.114 25.0861 82.7315 25.9702C81.3584 26.8448 79.3082 27.2821 76.5808 27.2821ZM92.6064 27C91.2803 27 90.2458 26.6802 89.5028 26.0407C88.7599 25.4012 88.3884 24.4419 88.3884 23.1629V15.1783H85.4964V11.5105H88.3884V7.58876L93.1848 6.6577V11.5105H97.0219V15.1783H93.1848V21.6252C93.1848 22.0861 93.2929 22.4105 93.5092 22.5986C93.7349 22.7773 94.097 22.8666 94.5955 22.8666H97.0219V27H92.6064ZM99.0533 9.52142V5.93824H103.906V9.52142H99.0533ZM99.0533 27V11.5105H103.906V27H99.0533ZM112.977 27C111.651 27 110.616 26.6802 109.873 26.0407C109.13 25.4012 108.759 24.4419 108.759 23.1629V15.1783H105.867V11.5105H108.759V7.58876L113.555 6.6577V11.5105H117.392V15.1783H113.555V21.6252C113.555 22.0861 113.663 22.4105 113.88 22.5986C114.105 22.7773 114.468 22.8666 114.966 22.8666H117.392V27H112.977ZM126.068 27.2539C125.024 27.2539 124.103 27.127 123.303 26.873C122.504 26.6191 121.798 26.2194 121.187 25.6739C120.585 25.1191 120.124 24.3714 119.805 23.4309C119.494 22.4811 119.339 21.3478 119.339 20.0311V11.5105H124.22V19.1706C124.22 20.6283 124.493 21.7287 125.038 22.4717C125.593 23.2146 126.496 23.5861 127.747 23.5861C129.035 23.5861 130.07 23.1817 130.85 22.3729C131.631 21.5641 132.021 20.5061 132.021 19.1988V11.5105H136.902V27H132.233L132.021 24.2773H131.796C131.316 25.1802 130.554 25.9044 129.51 26.4498C128.466 26.9859 127.319 27.2539 126.068 27.2539ZM146.044 27C144.718 27 143.683 26.6802 142.94 26.0407C142.197 25.4012 141.826 24.4419 141.826 23.1629V15.1783H138.934V11.5105H141.826V7.58876L146.622 6.6577V11.5105H150.459V15.1783H146.622V21.6252C146.622 22.0861 146.73 22.4105 146.947 22.5986C147.172 22.7773 147.534 22.8666 148.033 22.8666H150.459V27H146.044ZM160.969 27.2539C158.119 27.2539 155.853 26.5533 154.169 25.152C152.495 23.7413 151.658 21.8039 151.658 19.3399C151.658 16.8288 152.5 14.8492 154.183 13.4008C155.867 11.9525 158.11 11.2284 160.912 11.2284C163.866 11.2284 166.137 12.0325 167.726 13.6407C169.316 15.2489 170.016 17.4684 169.828 20.2992H156.539C156.568 21.4559 156.981 22.3635 157.781 23.0218C158.59 23.6707 159.69 23.9952 161.082 23.9952C162.135 23.9952 163.033 23.8212 163.776 23.4732C164.529 23.1159 165.008 22.6456 165.215 22.0625H169.8C169.584 23.6143 168.657 24.8698 167.021 25.8291C165.384 26.779 163.367 27.2539 160.969 27.2539ZM160.884 14.5435C159.671 14.5435 158.674 14.8163 157.894 15.3617C157.122 15.8978 156.643 16.6549 156.455 17.6329H165.004C164.919 16.6643 164.524 15.9072 163.819 15.3617C163.113 14.8163 162.135 14.5435 160.884 14.5435Z" fill="#ECECEC"/>
</svg>
