<svg width="165" height="37" viewBox="0 0 165 37" fill="none" xmlns="http://www.w3.org/2000/svg">
<path d="M29.4414 19.2258C29.4414 21.9948 28.6203 24.7015 27.082 27.0038C25.5436 29.3061 23.3571 31.1005 20.799 32.1601C18.2408 33.2198 15.4259 33.497 12.7101 32.9568C9.99441 32.4166 7.49985 31.0833 5.54192 29.1253C3.58398 27.1674 2.25061 24.6728 1.71042 21.9571C1.17023 19.2414 1.44747 16.4264 2.5071 13.8683C3.56673 11.3101 5.36114 9.1236 7.66343 7.58526C9.96572 6.04692 12.6725 5.22583 15.4414 5.22583V12.2258C14.0569 12.2258 12.7036 12.6364 11.5524 13.4055C10.4013 14.1747 9.50407 15.268 8.97426 16.547C8.44444 17.8261 8.30582 19.2336 8.57592 20.5915C8.84601 21.9493 9.5127 23.1966 10.4917 24.1756C11.4706 25.1545 12.7179 25.8212 14.0758 26.0913C15.4336 26.3614 16.8411 26.2228 18.1202 25.693C19.3993 25.1632 20.4925 24.266 21.2617 23.1148C22.0309 21.9637 22.4414 20.6103 22.4414 19.2258H29.4414Z" fill="#ECECEC"/>
<path d="M28.1797 5.226L28.1584 5.22583L16.7115 5.226V12.226H22.439V17.9528L29.4389 17.9528L29.4389 6.50636L29.4388 6.48524V5.226H28.1797Z" fill="#ECECEC"/>
<path d="M40.9579 27L49.9723 5.93824H56.5038L65.5464 27H60.087L58.3518 22.782H48.096L46.3891 27H40.9579ZM49.5067 19.0295H56.9976L54.2467 12.498L53.3297 10.0152H53.1464L52.2294 12.4698L49.5067 19.0295ZM74.5608 32.1067C72.0968 32.1067 70.1641 31.6647 68.7628 30.7807C67.3709 29.8966 66.6044 28.6834 66.4634 27.1411H71.0905C71.2127 27.7148 71.5795 28.1521 72.1908 28.453C72.8115 28.754 73.6297 28.9044 74.6454 28.9044C77.401 28.9044 78.7788 27.8652 78.7788 25.7868V23.3322H78.5672C78.1158 24.1786 77.3869 24.8369 76.3806 25.3072C75.3837 25.7774 74.2833 26.0125 73.0796 26.0125C70.9165 26.0125 69.1813 25.3401 67.8741 23.9952C66.5668 22.6409 65.9132 20.8493 65.9132 18.6204C65.9132 16.4009 66.5809 14.614 67.9164 13.2598C69.2613 11.9055 71.0105 11.2284 73.1642 11.2284C74.4056 11.2284 75.506 11.4635 76.4652 11.9337C77.4339 12.3945 78.1534 13.0341 78.6236 13.8523H78.8352L79.0609 11.5105H83.6316V25.1802C83.6316 27.4279 82.8698 29.1443 81.3463 30.3293C79.8321 31.5142 77.5703 32.1067 74.5608 32.1067ZM74.7865 22.4575C75.9903 22.4575 76.9543 22.1378 77.6784 21.4983C78.412 20.8493 78.7788 20.0076 78.7788 18.9731V18.3101C78.7788 17.2568 78.4167 16.3962 77.6925 15.7285C76.9778 15.0608 76.0279 14.7269 74.8429 14.7269C73.6203 14.7269 72.6422 15.0796 71.9087 15.7849C71.1845 16.4809 70.8224 17.4166 70.8224 18.5922C70.8224 19.796 71.1798 20.7412 71.8946 21.4277C72.6093 22.1143 73.5733 22.4575 74.7865 22.4575ZM95.0583 27.2539C92.2086 27.2539 89.9421 26.5533 88.2587 25.152C86.5847 23.7413 85.7476 21.8039 85.7476 19.3399C85.7476 16.8288 86.5894 14.8492 88.2728 13.4008C89.9562 11.9525 92.1992 11.2284 95.0018 11.2284C97.9549 11.2284 100.226 12.0325 101.816 13.6407C103.405 15.2489 104.106 17.4684 103.917 20.2992H90.6287C90.6569 21.4559 91.0707 22.3635 91.8701 23.0218C92.6789 23.6707 93.7792 23.9952 95.1711 23.9952C96.2244 23.9952 97.1226 23.8212 97.8656 23.4732C98.6179 23.1159 99.0976 22.6456 99.3045 22.0625H103.889C103.673 23.6143 102.747 24.8698 101.11 25.8291C99.4738 26.779 97.4565 27.2539 95.0583 27.2539ZM94.9736 14.5435C93.7604 14.5435 92.7635 14.8163 91.9829 15.3617C91.2118 15.8978 90.7321 16.6549 90.544 17.6329H99.0929C99.0082 16.6643 98.6132 15.9072 97.9079 15.3617C97.2025 14.8163 96.2244 14.5435 94.9736 14.5435ZM106.16 27V11.5105H110.844L111.013 14.2049H111.281C111.761 13.2833 112.523 12.5591 113.567 12.0325C114.62 11.4964 115.753 11.2284 116.966 11.2284C118.001 11.2284 118.913 11.3553 119.703 11.6093C120.503 11.8632 121.208 12.2676 121.819 12.8225C122.44 13.3679 122.91 14.1203 123.23 15.0796C123.55 16.0295 123.71 17.1721 123.71 18.5076V27H118.843V19.3399C118.843 17.8728 118.565 16.7724 118.01 16.0389C117.465 15.2959 116.562 14.9244 115.302 14.9244C114.013 14.9244 112.974 15.3288 112.184 16.1376C111.404 16.9464 111.013 17.995 111.013 19.2835V27H106.16ZM134.741 27.2539C131.948 27.2539 129.738 26.5298 128.111 25.0814C126.484 23.6237 125.67 21.6628 125.67 19.1988C125.67 16.7348 126.517 14.7927 128.21 13.3726C129.912 11.9431 132.169 11.2284 134.981 11.2284C137.502 11.2284 139.542 11.7785 141.104 12.8789C142.665 13.9792 143.511 15.4323 143.643 17.238H138.818C138.63 16.5232 138.193 15.9636 137.506 15.5592C136.82 15.1548 135.969 14.9526 134.953 14.9526C133.58 14.9526 132.503 15.3429 131.722 16.1235C130.942 16.8947 130.551 17.9292 130.551 19.227C130.551 20.6095 130.937 21.677 131.708 22.4293C132.489 23.1817 133.561 23.5579 134.925 23.5579C135.903 23.5579 136.749 23.3463 137.464 22.9231C138.188 22.4999 138.658 21.9215 138.875 21.1879H143.727C143.633 22.4105 143.173 23.4874 142.345 24.4184C141.517 25.3401 140.44 26.0454 139.114 26.5345C137.798 27.0141 136.34 27.2539 134.741 27.2539ZM146.238 31.8246V27.9875H148.284C149.224 27.9875 149.93 27.8558 150.4 27.5925C150.87 27.3292 151.237 26.9013 151.5 26.3088L151.754 25.7586L144.588 11.5105H149.822L153.264 19.3117L154.068 21.2726H154.237L155.027 19.3117L158.286 11.5105H163.336L155.634 27.8323C154.957 29.2806 154.082 30.3057 153.01 30.9076C151.938 31.5189 150.546 31.8246 148.834 31.8246H146.238Z" fill="#ECECEC"/>
</svg>
