<svg width="162" height="37" viewBox="0 0 162 37" fill="none" xmlns="http://www.w3.org/2000/svg">
<path d="M4.50741 26.6666L10.4277 20.6856C10.7669 20.3429 11.3185 20.336 11.6662 20.6702L14.4846 23.3794C15.5222 24.3767 17.1664 24.3623 18.1863 23.347L25.4929 16.0734V20.3559C25.4929 21.5158 26.4331 22.456 27.593 22.456C28.7528 22.456 29.6931 21.5158 29.6931 20.3559V11.32C29.6931 10.1018 28.7055 9.11426 27.4873 9.11426H18.3691C17.2547 9.11426 16.3513 10.0176 16.3513 11.132C16.3513 12.2464 17.2547 13.1497 18.3691 13.1497H22.6516L16.3513 19.5323L12.5961 15.8062C11.7349 14.9517 10.3452 14.9531 9.48571 15.8093L1.54826 23.7169C0.737815 24.5243 0.72749 25.8334 1.5251 26.6535C2.34035 27.4917 3.68482 27.4976 4.50741 26.6666Z" fill="#ECECEC"/>
<path d="M51.7921 27.2539C48.4158 27.2539 45.8718 26.6332 44.1602 25.3918C42.4579 24.141 41.5927 22.4434 41.5645 20.2992H46.8264C46.8546 21.4089 47.3061 22.2695 48.1807 22.8808C49.0553 23.4921 50.3155 23.7977 51.9614 23.7977C53.4285 23.7977 54.5476 23.5673 55.3188 23.1065C56.09 22.6456 56.4756 21.9967 56.4756 21.1597C56.4756 20.9246 56.4521 20.713 56.4051 20.5249C56.358 20.3274 56.3016 20.1534 56.2358 20.0029C56.1794 19.8525 56.0712 19.7161 55.9113 19.5938C55.7609 19.4716 55.6245 19.3681 55.5022 19.2835C55.38 19.1894 55.1825 19.1048 54.9097 19.0295C54.637 18.9449 54.4066 18.8791 54.2185 18.832C54.0304 18.7756 53.7388 18.7192 53.3439 18.6628C52.9489 18.5969 52.6197 18.5499 52.3564 18.5217C52.093 18.4841 51.7027 18.4323 51.1855 18.3665C49.9347 18.2254 48.8531 18.0562 47.9409 17.8587C47.0286 17.6612 46.1916 17.4025 45.4298 17.0828C44.668 16.763 44.052 16.3821 43.5818 15.9401C43.1116 15.4887 42.7495 14.9526 42.4956 14.3319C42.2416 13.7018 42.1147 12.9729 42.1147 12.1453C42.1147 10.0951 42.9564 8.50572 44.6398 7.37716C46.3233 6.2486 48.6509 5.68432 51.6228 5.68432C54.3784 5.68432 56.5697 6.23919 58.1967 7.34894C59.8331 8.45869 60.7312 10.0199 60.8911 12.0325H55.8126C55.6997 11.0544 55.2624 10.3255 54.5006 9.84588C53.7388 9.35684 52.709 9.11232 51.4112 9.11232C50.1039 9.11232 49.0882 9.33333 48.3641 9.77535C47.6493 10.2174 47.2919 10.824 47.2919 11.5952C47.2919 11.9055 47.3249 12.1688 47.3907 12.3851C47.4565 12.6015 47.5835 12.7989 47.7716 12.9776C47.9691 13.1469 48.1807 13.288 48.4064 13.4008C48.6415 13.5043 48.9801 13.6078 49.4221 13.7112C49.8641 13.8052 50.3061 13.8852 50.7482 13.951C51.1902 14.0169 51.778 14.0921 52.5115 14.1767C53.8188 14.3272 54.9238 14.5012 55.8267 14.6987C56.7295 14.8868 57.5713 15.1454 58.3518 15.4746C59.1418 15.7943 59.7625 16.1846 60.214 16.6455C60.6748 17.1063 61.0322 17.68 61.2861 18.3665C61.54 19.0436 61.667 19.843 61.667 20.7647C61.667 22.8149 60.8112 24.409 59.0995 25.547C57.3973 26.6849 54.9615 27.2539 51.7921 27.2539ZM69.8349 27C68.5089 27 67.4744 26.6802 66.7314 26.0407C65.9884 25.4012 65.6169 24.4419 65.6169 23.1629V15.1783H62.725V11.5105H65.6169V7.58876L70.4133 6.6577V11.5105H74.2504V15.1783H70.4133V21.6252C70.4133 22.0861 70.5215 22.4105 70.7378 22.5986C70.9635 22.7773 71.3256 22.8666 71.824 22.8666H74.2504V27H69.8349ZM83.0814 27.2821C80.7867 27.2821 78.9387 26.558 77.5374 25.1097C76.1455 23.6519 75.4495 21.7005 75.4495 19.2553C75.4495 16.8194 76.1455 14.8774 77.5374 13.4291C78.9387 11.9807 80.7867 11.2566 83.0814 11.2566C84.5203 11.2566 85.7335 11.4964 86.721 11.976C87.7085 12.4557 88.4327 13.1093 88.8935 13.9369H89.091L89.2321 11.5105H93.8592V27H88.9781V24.5172H88.7665C88.2869 25.373 87.5345 26.0501 86.5094 26.5486C85.4937 27.0376 84.3511 27.2821 83.0814 27.2821ZM84.5768 23.5861C85.9216 23.5861 86.9844 23.2099 87.7649 22.4575C88.5549 21.7052 88.9499 20.7553 88.9499 19.6079V18.8462C88.9499 17.727 88.5549 16.8006 87.7649 16.0671C86.975 15.3241 85.9122 14.9526 84.5768 14.9526C83.2977 14.9526 82.2726 15.3288 81.5014 16.0812C80.7397 16.8336 80.3588 17.8916 80.3588 19.2553C80.3588 20.6095 80.7397 21.6723 81.5014 22.4434C82.2632 23.2052 83.2883 23.5861 84.5768 23.5861ZM96.7088 27V11.5105H101.11L101.279 13.9651H101.477C101.797 13.1281 102.323 12.4745 103.057 12.0043C103.8 11.5246 104.679 11.2848 105.695 11.2848C106.193 11.2848 106.617 11.313 106.965 11.3694V15.7285C106.381 15.6533 105.921 15.6156 105.582 15.6156C102.958 15.6156 101.618 16.9558 101.562 19.6361V27H96.7088ZM115.485 27C114.159 27 113.125 26.6802 112.382 26.0407C111.639 25.4012 111.267 24.4419 111.267 23.1629V15.1783H108.375V11.5105H111.267V7.58876L116.064 6.6577V11.5105H119.901V15.1783H116.064V21.6252C116.064 22.0861 116.172 22.4105 116.388 22.5986C116.614 22.7773 116.976 22.8666 117.474 22.8666H119.901V27H115.485ZM128.577 27.2539C127.533 27.2539 126.611 27.127 125.812 26.873C125.012 26.6191 124.307 26.2194 123.695 25.6739C123.094 25.1191 122.633 24.3714 122.313 23.4309C122.003 22.4811 121.847 21.3478 121.847 20.0311V11.5105H126.728V19.1706C126.728 20.6283 127.001 21.7287 127.547 22.4717C128.102 23.2146 129.004 23.5861 130.255 23.5861C131.544 23.5861 132.578 23.1817 133.359 22.3729C134.139 21.5641 134.53 20.5061 134.53 19.1988V11.5105H139.411V27H134.741L134.53 24.2773H134.304C133.824 25.1802 133.063 25.9044 132.019 26.4498C130.975 26.9859 129.827 27.2539 128.577 27.2539ZM142.246 31.8246V11.5105H146.845L146.986 13.9369H147.198C147.687 13.1093 148.42 12.4557 149.398 11.976C150.377 11.4964 151.576 11.2566 152.996 11.2566C155.281 11.2566 157.12 11.9807 158.512 13.4291C159.903 14.8774 160.599 16.8194 160.599 19.2553C160.599 21.7005 159.899 23.6519 158.497 25.1097C157.106 26.558 155.262 27.2821 152.968 27.2821C151.698 27.2821 150.555 27.0376 149.54 26.5486C148.533 26.0501 147.781 25.373 147.282 24.5172H147.099V31.8246H142.246ZM151.5 23.5861C152.779 23.5861 153.8 23.2052 154.562 22.4434C155.333 21.6723 155.718 20.6095 155.718 19.2553C155.718 17.901 155.337 16.8477 154.576 16.0953C153.814 15.3335 152.789 14.9526 151.5 14.9526C150.146 14.9526 149.074 15.3241 148.284 16.0671C147.494 16.8006 147.099 17.727 147.099 18.8462V19.6079C147.099 20.7553 147.494 21.7052 148.284 22.4575C149.074 23.2099 150.146 23.5861 151.5 23.5861Z" fill="#ECECEC"/>
</svg>
