<svg width="90" height="80" viewBox="0 0 90 80" fill="none" xmlns="http://www.w3.org/2000/svg">
<path d="M3.9375 72.3868L12.5734 63.751" stroke="#080808" stroke-width="2" stroke-linecap="round"/>
<path d="M14.2109 74.0199L16.2225 66.5128" stroke="#080808" stroke-width="2" stroke-linecap="round"/>
<path d="M2.30469 62.1127L9.81177 60.1012" stroke="#080808" stroke-width="2" stroke-linecap="round"/>
<circle cx="5.83027" cy="26.4568" r="1.9375" transform="rotate(-60 5.83027 26.4568)" fill="#080808" stroke="#080808" stroke-width="2"/>
<path d="M79.9844 19.9978L86.5878 23.8103" stroke="#080808" stroke-width="2" stroke-linecap="round"/>
<path d="M85.1914 18.6023L81.3789 25.2057" stroke="#080808" stroke-width="2" stroke-linecap="round"/>
<path d="M12.6603 27.0941C11.8027 23.8933 13.7022 20.6033 16.903 19.7457L60.1759 8.15073C63.3767 7.29307 66.6667 9.19257 67.5244 12.3934L76.7667 46.8861C77.6243 50.0869 75.7248 53.3769 72.524 54.2346L29.2511 65.8295C26.0503 66.6872 22.7603 64.7877 21.9026 61.5869L12.6603 27.0941Z" fill="#080808" stroke="#080808" stroke-width="2"/>
<path d="M16.3125 19.1353C16.3125 15.8216 18.9988 13.1353 22.3125 13.1353H67.1119C70.4256 13.1353 73.1119 15.8215 73.1119 19.1353V54.8448C73.1119 58.1585 70.4256 60.8448 67.1119 60.8448H22.3125C18.9988 60.8448 16.3125 58.1585 16.3125 54.8448V19.1353Z" fill="#FFFAF3" stroke="#080808" stroke-width="2"/>
<path d="M50.154 34.9493C50.9158 33.5631 52.8395 33.5631 53.6166 34.9493L61.1207 48.334C61.8978 49.7201 60.9455 51.4528 59.4066 51.4528H44.5462C43.0073 51.4528 42.0359 49.7201 42.7977 48.334L50.154 34.9493Z" fill="#080808"/>
<path d="M38.8623 29.2964C39.6241 27.9103 41.5478 27.9103 42.3249 29.2964L52.9981 48.334C53.7753 49.7201 52.823 51.4527 51.2841 51.4527H30.1478C28.6088 51.4527 27.6374 49.7201 28.3993 48.334L38.8623 29.2964Z" fill="#3C2BFF"/>
<circle cx="57.2472" cy="26.6885" r="4.16126" fill="#3C2BFF"/>
</svg>
