<svg width="92" height="81" viewBox="0 0 92 81" fill="none" xmlns="http://www.w3.org/2000/svg">
<rect x="28.3828" y="26.2897" width="56.5606" height="46.9219" rx="5" fill="#080808"/>
<rect x="15.375" y="14.3861" width="62.6875" height="52.6553" rx="6" fill="#FFFAF3" stroke="#080808" stroke-width="2"/>
<path d="M78.0625 24.4312L15.375 24.4312" stroke="#080808" stroke-width="2"/>
<circle cx="22.3051" cy="19.6517" r="1.49652" fill="#080808"/>
<circle cx="26.4067" cy="19.6517" r="1.49652" fill="#080808"/>
<circle cx="30.5082" cy="19.6517" r="1.49652" fill="#080808"/>
<path d="M71.632 39.6354H54.1172" stroke="#080808" stroke-width="2" stroke-linecap="round"/>
<path d="M71.632 44.9698H54.1172" stroke="#080808" stroke-width="2" stroke-linecap="round"/>
<path d="M67.863 50.3043H54.1172" stroke="#080808" stroke-width="2" stroke-linecap="round"/>
<rect x="22.3008" y="31.1249" width="27.2145" height="27.69" rx="3" fill="#FFC121"/>
<path d="M1.26367 5.95654L11.8404 12.063" stroke="#080808" stroke-width="2" stroke-linecap="round"/>
<path d="M2.3418 16.3013H10.1137" stroke="#080808" stroke-width="2" stroke-linecap="round"/>
<path d="M10.7637 1.71802L14.6496 8.44868" stroke="#080808" stroke-width="2" stroke-linecap="round"/>
<circle cx="8.12324" cy="29.0752" r="1.9375" transform="rotate(-60 8.12324 29.0752)" fill="#080808" stroke="#080808" stroke-width="2"/>
<path d="M81.6406 9.77734L88.2441 13.5898" stroke="#080808" stroke-width="2" stroke-linecap="round"/>
<path d="M86.8477 8.38184L83.0352 14.9853" stroke="#080808" stroke-width="2" stroke-linecap="round"/>
</svg>
