<svg width="202" height="37" viewBox="0 0 202 37" fill="none" xmlns="http://www.w3.org/2000/svg">
<path d="M0.757812 24.2505C0.757812 24.9399 1.45603 25.4098 2.09464 25.1502L10.6279 21.6814C10.994 21.5326 11.2333 21.1768 11.2333 20.7817V16.8646C11.2333 16.4695 11.4727 16.1137 11.8388 15.965L20.403 12.4836C20.769 12.3348 21.0084 11.979 21.0084 11.5839V6.99139C21.0084 6.45505 20.5736 6.02026 20.0373 6.02026H11.504C10.9677 6.02026 10.5329 6.45505 10.5329 6.99139L10.5329 14.247C10.5329 14.7833 10.0981 15.2181 9.56178 15.2181L1.72894 15.2181C1.1926 15.2181 0.757812 15.6529 0.757812 16.1892V24.2505Z" fill="#ECECEC"/>
<path d="M28.4185 12.6661C28.4185 11.9768 27.7203 11.5069 27.0817 11.7665L18.5484 15.2353C18.1824 15.3841 17.943 15.7398 17.943 16.1349V20.0521C17.943 20.4472 17.7036 20.8029 17.3376 20.9517L8.77334 24.4331C8.40731 24.5819 8.16792 24.9376 8.16792 25.3327V29.9253C8.16792 30.4616 8.60271 30.8964 9.13905 30.8964H17.6723C18.2087 30.8964 18.6435 30.4616 18.6435 29.9253V22.6697C18.6435 22.1334 19.0782 21.6986 19.6146 21.6986H27.4474C27.9838 21.6986 28.4185 21.2638 28.4185 20.7275V12.6661Z" fill="#ECECEC"/>
<path d="M39.4257 27V5.93824H57.2428V9.93052H44.4478V14.4871H55.8321V18.2113H44.4478V23.0077H57.3134V27H39.4257ZM59.5846 27V11.5105H64.2681L64.4374 14.2049H64.7055C65.1851 13.2833 65.9469 12.5591 66.9908 12.0325C68.0441 11.4964 69.1774 11.2284 70.3906 11.2284C71.4251 11.2284 72.3373 11.3553 73.1273 11.6093C73.9267 11.8632 74.6321 12.2676 75.2434 12.8225C75.8641 13.3679 76.3343 14.1203 76.6541 15.0796C76.9738 16.0295 77.1337 17.1721 77.1337 18.5076V27H72.2668V19.3399C72.2668 17.8728 71.9894 16.7724 71.4345 16.0389C70.889 15.2959 69.9862 14.9244 68.7259 14.9244C67.4375 14.9244 66.3983 15.3288 65.6083 16.1376C64.8277 16.9464 64.4374 17.995 64.4374 19.2835V27H59.5846ZM85.4145 27C84.0885 27 83.054 26.6802 82.311 26.0407C81.568 25.4012 81.1965 24.4419 81.1965 23.1629V15.1783H78.3046V11.5105H81.1965V7.58876L85.9929 6.6577V11.5105H89.83V15.1783H85.9929V21.6252C85.9929 22.0861 86.1011 22.4105 86.3174 22.5986C86.5431 22.7773 86.9052 22.8666 87.4036 22.8666H89.83V27H85.4145ZM100.34 27.2539C97.4901 27.2539 95.2236 26.5533 93.5402 25.152C91.8661 23.7413 91.0291 21.8039 91.0291 19.3399C91.0291 16.8288 91.8708 14.8492 93.5543 13.4008C95.2377 11.9525 97.4807 11.2284 100.283 11.2284C103.236 11.2284 105.508 12.0325 107.097 13.6407C108.686 15.2489 109.387 17.4684 109.199 20.2992H95.9101C95.9384 21.4559 96.3522 22.3635 97.1516 23.0218C97.9604 23.6707 99.0607 23.9952 100.453 23.9952C101.506 23.9952 102.404 23.8212 103.147 23.4732C103.899 23.1159 104.379 22.6456 104.586 22.0625H109.171C108.954 23.6143 108.028 24.8698 106.392 25.8291C104.755 26.779 102.738 27.2539 100.34 27.2539ZM100.255 14.5435C99.0419 14.5435 98.045 14.8163 97.2644 15.3617C96.4932 15.8978 96.0136 16.6549 95.8255 17.6329H104.374C104.29 16.6643 103.895 15.9072 103.189 15.3617C102.484 14.8163 101.506 14.5435 100.255 14.5435ZM111.442 27V11.5105H115.843L116.013 13.9651H116.21C116.53 13.1281 117.057 12.4745 117.79 12.0043C118.533 11.5246 119.412 11.2848 120.428 11.2848C120.927 11.2848 121.35 11.313 121.698 11.3694V15.7285C121.115 15.6533 120.654 15.6156 120.315 15.6156C117.691 15.6156 116.351 16.9558 116.295 19.6361V27H111.442ZM123.63 31.8246V11.5105H128.229L128.37 13.9369H128.582C129.071 13.1093 129.805 12.4557 130.783 11.976C131.761 11.4964 132.96 11.2566 134.38 11.2566C136.665 11.2566 138.504 11.9807 139.896 13.4291C141.288 14.8774 141.984 16.8194 141.984 19.2553C141.984 21.7005 141.283 23.6519 139.882 25.1097C138.49 26.558 136.646 27.2821 134.352 27.2821C133.082 27.2821 131.939 27.0376 130.924 26.5486C129.917 26.0501 129.165 25.373 128.667 24.5172H128.483V31.8246H123.63ZM132.885 23.5861C134.164 23.5861 135.184 23.2052 135.946 22.4434C136.717 21.6723 137.103 20.6095 137.103 19.2553C137.103 17.901 136.722 16.8477 135.96 16.0953C135.198 15.3335 134.173 14.9526 132.885 14.9526C131.53 14.9526 130.458 15.3241 129.668 16.0671C128.878 16.8006 128.483 17.727 128.483 18.8462V19.6079C128.483 20.7553 128.878 21.7052 129.668 22.4575C130.458 23.2099 131.53 23.5861 132.885 23.5861ZM144.198 27V11.5105H148.6L148.769 13.9651H148.967C149.286 13.1281 149.813 12.4745 150.547 12.0043C151.29 11.5246 152.169 11.2848 153.185 11.2848C153.683 11.2848 154.106 11.313 154.454 11.3694V15.7285C153.871 15.6533 153.41 15.6156 153.072 15.6156C150.448 15.6156 149.108 16.9558 149.051 19.6361V27H144.198ZM156.387 9.52142V5.93824H161.24V9.52142H156.387ZM156.387 27V11.5105H161.24V27H156.387ZM171.552 27.2821C168.937 27.2821 166.915 26.826 165.486 25.9138C164.066 24.9921 163.304 23.7178 163.201 22.0908H167.941C168.082 23.5955 169.332 24.3479 171.693 24.3479C173.884 24.3479 174.98 23.7789 174.98 22.6409C174.98 22.0202 174.731 21.6017 174.232 21.3854C173.743 21.1597 172.751 20.981 171.256 20.8493C168.462 20.586 166.506 20.1252 165.387 19.4669C164.277 18.8085 163.723 17.727 163.723 16.2222C163.723 14.6893 164.418 13.4761 165.81 12.5826C167.202 11.6798 169.135 11.2284 171.608 11.2284C173.865 11.2284 175.671 11.661 177.025 12.5262C178.38 13.382 179.137 14.6046 179.297 16.194H174.698C174.613 15.5169 174.293 15.009 173.738 14.6705C173.193 14.3225 172.474 14.1485 171.58 14.1485C170.602 14.1485 169.831 14.2896 169.267 14.5717C168.712 14.8445 168.434 15.2583 168.434 15.8131C168.434 16.1047 168.5 16.3445 168.632 16.5326C168.763 16.7207 168.999 16.8759 169.337 16.9981C169.685 17.1204 170.075 17.2191 170.508 17.2944C170.941 17.3602 171.538 17.426 172.3 17.4919C173.447 17.5953 174.411 17.7223 175.192 17.8728C175.982 18.0138 176.682 18.2019 177.293 18.437C177.905 18.6722 178.384 18.9684 178.732 19.3258C179.08 19.6738 179.339 20.0923 179.508 20.5813C179.687 21.0704 179.776 21.6581 179.776 22.3447C179.776 23.8776 179.085 25.0861 177.703 25.9702C176.329 26.8448 174.279 27.2821 171.552 27.2821ZM190.371 27.2539C187.521 27.2539 185.255 26.5533 183.571 25.152C181.897 23.7413 181.06 21.8039 181.06 19.3399C181.06 16.8288 181.902 14.8492 183.585 13.4008C185.269 11.9525 187.512 11.2284 190.314 11.2284C193.267 11.2284 195.539 12.0325 197.128 13.6407C198.717 15.2489 199.418 17.4684 199.23 20.2992H185.941C185.969 21.4559 186.383 22.3635 187.182 23.0218C187.991 23.6707 189.092 23.9952 190.483 23.9952C191.537 23.9952 192.435 23.8212 193.178 23.4732C193.93 23.1159 194.41 22.6456 194.617 22.0625H199.202C198.985 23.6143 198.059 24.8698 196.423 25.8291C194.786 26.779 192.769 27.2539 190.371 27.2539ZM190.286 14.5435C189.073 14.5435 188.076 14.8163 187.295 15.3617C186.524 15.8978 186.044 16.6549 185.856 17.6329H194.405C194.321 16.6643 193.926 15.9072 193.22 15.3617C192.515 14.8163 191.537 14.5435 190.286 14.5435Z" fill="#ECECEC"/>
</svg>
