<svg width="90" height="80" viewBox="0 0 90 80" fill="none" xmlns="http://www.w3.org/2000/svg">
<path d="M85.3705 70.4659L79.4149 17.5784L75.375 73.8016H82.3894C84.1792 73.8016 85.5708 72.2445 85.3705 70.4659Z" fill="#080808" stroke="#080808" stroke-width="2"/>
<path d="M35.8415 17.5784H79.043L75.3188 73.8016H32.1172L35.8415 17.5784Z" stroke="#080808" stroke-width="2"/>
<path d="M35.7539 11.802C35.7539 10.6974 36.6493 9.802 37.7539 9.802H77.3836C78.4881 9.802 79.3836 10.6974 79.3836 11.802V17.8881H35.7539V11.802Z" stroke="#080808" stroke-width="2"/>
<path d="M18.6874 50.9771C18.802 49.9662 19.6573 49.2024 20.6747 49.2024H48.5643C49.4499 49.2024 50.2301 49.7848 50.4818 50.6339L53.6836 61.4339C53.7936 61.8049 53.7936 62.1999 53.6836 62.5709L50.4818 73.3709C50.2301 74.22 49.4499 74.8024 48.5643 74.8024H20.6747C19.6573 74.8024 18.802 74.0386 18.6874 73.0277L17.463 62.2277C17.4461 62.078 17.4461 61.9268 17.463 61.7771L18.6874 50.9771Z" fill="#080808"/>
<path d="M10.2787 50.7015C10.507 49.8189 11.3033 49.2024 12.215 49.2024H41.5107C42.4298 49.2024 43.2306 49.8288 43.4519 50.7209L46.1306 61.5209C46.209 61.8371 46.209 62.1677 46.1306 62.4839L43.4519 73.2839C43.2306 74.176 42.4298 74.8024 41.5107 74.8024H12.215C11.3033 74.8024 10.507 74.1859 10.2787 73.3033L7.48503 62.5033C7.40005 62.1748 7.40005 61.83 7.48503 61.5015L10.2787 50.7015Z" fill="#080808"/>
<path d="M7.39453 62.0032H54.1247" stroke="#FFFAF3" stroke-width="2"/>
<path d="M16.0273 30.6132L26.6041 36.7197" stroke="#080808" stroke-width="2" stroke-linecap="round"/>
<path d="M17.1055 40.9579H24.8774" stroke="#080808" stroke-width="2" stroke-linecap="round"/>
<path d="M25.5273 26.3746L29.4133 33.1053" stroke="#080808" stroke-width="2" stroke-linecap="round"/>
<path d="M23.3008 4.08411L29.9042 7.89661" stroke="#080808" stroke-width="2" stroke-linecap="round"/>
<path d="M28.5078 2.6886L24.6953 9.29204" stroke="#080808" stroke-width="2" stroke-linecap="round"/>
<circle cx="86.4553" cy="13.845" r="1.9375" transform="rotate(-60 86.4553 13.845)" fill="#080808" stroke="#080808" stroke-width="2"/>
<path d="M40.9193 24.913C40.9587 24.3914 41.3934 23.9883 41.9165 23.9883H71.675C72.2569 23.9883 72.7159 24.4833 72.6722 25.0635L71.8066 36.5316C71.7673 37.0532 71.3326 37.4563 70.8095 37.4563H41.051C40.469 37.4563 40.01 36.9613 40.0538 36.381L40.9193 24.913Z" fill="#FFC121"/>
</svg>
