<svg width="90" height="80" viewBox="0 0 90 80" fill="none" xmlns="http://www.w3.org/2000/svg">
<path d="M63.4673 60.0873C63.2516 60.0007 63.0342 59.9134 62.8234 59.8287L56.5077 60.6363C54.7707 59.1541 53.329 57.3573 52.2584 55.3403L54.5666 49.5377C54.5248 49.3115 54.49 49.0863 54.4652 48.8595L50.5086 43.8774C50.9254 41.6713 51.7702 39.5681 52.9952 37.6866L59.2906 36.8316C59.4696 36.6885 59.6512 36.5483 59.833 36.412L62.1863 30.6275C64.3548 29.907 66.6398 29.6026 68.9213 29.7304L72.9156 34.679C73.1313 34.7656 73.3486 34.8529 73.5595 34.9376L79.8671 34.1268C81.6041 35.6091 83.0458 37.4058 84.1164 39.4228L81.8082 45.2254C81.85 45.4516 81.8848 45.6768 81.9096 45.9036L85.8636 50.8828C85.4468 53.0889 84.602 55.1921 83.377 57.0736L77.0816 57.9286C76.9026 58.0717 76.721 58.2119 76.5392 58.3482L74.1859 64.1327C72.0184 64.8539 69.7343 65.1593 67.4535 65.0328L63.4673 60.0873Z" stroke="#080808" stroke-width="2" stroke-linecap="round" stroke-linejoin="round"/>
<path d="M65.3792 54.3736C69.241 55.9248 73.629 54.0516 75.1801 50.1898C76.7312 46.3281 74.858 41.9401 70.9962 40.389C67.1345 38.8379 62.7465 40.711 61.1954 44.5728C59.6443 48.4346 61.5174 52.8225 65.3792 54.3736Z" stroke="#080808" stroke-width="2" stroke-linecap="round" stroke-linejoin="round"/>
<path d="M3.9375 72.3868L12.5734 63.751" stroke="#080808" stroke-width="2" stroke-linecap="round"/>
<path d="M14.2109 74.0199L16.2225 66.5128" stroke="#080808" stroke-width="2" stroke-linecap="round"/>
<path d="M2.30469 62.1127L9.81177 60.1012" stroke="#080808" stroke-width="2" stroke-linecap="round"/>
<circle cx="5.83027" cy="26.4568" r="1.9375" transform="rotate(-60 5.83027 26.4568)" fill="#080808" stroke="#080808" stroke-width="2"/>
<path d="M79.9844 19.9978L86.5878 23.8103" stroke="#080808" stroke-width="2" stroke-linecap="round"/>
<path d="M85.1914 18.6023L81.3789 25.2057" stroke="#080808" stroke-width="2" stroke-linecap="round"/>
<rect x="30.1309" y="2.69543" width="35.875" height="58.3892" rx="5" transform="rotate(11.4688 30.1309 2.69543)" fill="#080808" stroke="#080808" stroke-width="2"/>
<rect x="27.0078" y="2.06165" width="34.9375" height="58.389" rx="5" transform="rotate(11.4688 27.0078 2.06165)" fill="#FFFAF3" stroke="#080808" stroke-width="2"/>
<circle cx="34.0175" cy="55.3644" r="1.9375" transform="rotate(11.4688 34.0175 55.3644)" fill="#080808" stroke="#080808" stroke-width="2"/>
<rect x="27.0078" y="2.06165" width="34.9375" height="58.389" rx="5" transform="rotate(11.4688 27.0078 2.06165)" fill="#FFFAF3" stroke="#080808" stroke-width="2"/>
<rect x="30.1934" y="6.85315" width="26.7902" height="44.375" rx="3" transform="rotate(11.4688 30.1934 6.85315)" fill="#FE5E3A"/>
<circle cx="33.6707" cy="57.076" r="2.15363" transform="rotate(11.4688 33.6707 57.076)" fill="#080808"/>
<circle cx="23.105" cy="20.6986" r="10.5625" transform="rotate(10 23.105 20.6986)" fill="#080808"/>
<circle cx="23.6961" cy="17.3438" r="2.11741" transform="rotate(10 23.6961 17.3438)" fill="white"/>
<path d="M18.6261 23.2721C19.0063 21.1159 21.0624 19.6762 23.2185 20.0564V20.0564C25.3747 20.4366 26.8144 22.4927 26.4342 24.6489L26.1692 26.1514C26.1034 26.5246 25.7475 26.7738 25.3743 26.708L18.9178 25.5696C18.5445 25.5038 18.2953 25.1478 18.3611 24.7746L18.6261 23.2721Z" fill="white"/>
</svg>
