<svg width="195" height="37" viewBox="0 0 195 37" fill="none" xmlns="http://www.w3.org/2000/svg">
<path d="M8.79382 6.2475C8.79382 5.09982 9.72421 4.16943 10.8719 4.16943H26.0115C27.1592 4.16943 28.0896 5.09982 28.0896 6.2475V21.5692C28.0896 22.7169 27.1592 23.6472 26.0115 23.6472H19.4012V14.8162C19.4012 13.6685 18.4709 12.7381 17.3232 12.7381H8.79382V6.2475Z" fill="#ECECEC"/>
<path d="M8.79382 12.7381H2.18354C1.03585 12.7381 0.105469 13.6685 0.105469 14.8162V30.1379C0.105469 31.2855 1.03585 32.2159 2.18354 32.2159H17.3232C18.4709 32.2159 19.4012 31.2855 19.4012 30.1379V23.6472H10.8719C9.72421 23.6472 8.79382 22.7169 8.79382 21.5692V12.7381Z" fill="#ECECEC"/>
<path d="M50.4292 27.2539C46.7237 27.2539 43.8083 26.2758 41.6828 24.3197C39.5574 22.3635 38.4946 19.7396 38.4946 16.448C38.4946 13.1563 39.5527 10.5418 41.6687 8.60447C43.7942 6.6577 46.7143 5.68432 50.4292 5.68432C53.5515 5.68432 56.0908 6.36615 58.0469 7.72983C60.0031 9.0841 61.1411 10.9039 61.4608 13.1892H56.4105C56.119 12.1265 55.4277 11.2754 54.3368 10.6359C53.2459 9.98695 51.9433 9.66249 50.4292 9.66249C48.3131 9.66249 46.6485 10.2503 45.4353 11.4259C44.2221 12.592 43.6155 14.2661 43.6155 16.448C43.6155 18.6392 44.2221 20.3274 45.4353 21.5124C46.6485 22.688 48.3131 23.2758 50.4292 23.2758C51.9715 23.2758 53.2929 22.9513 54.3932 22.3024C55.4936 21.6534 56.1754 20.7835 56.4387 19.6926H61.4608C61.1693 21.9779 60.0078 23.8118 57.9764 25.1943C55.945 26.5674 53.4293 27.2539 50.4292 27.2539ZM72.3232 27.2821C69.4924 27.2821 67.2259 26.5721 65.5237 25.152C63.8308 23.7225 62.9844 21.7569 62.9844 19.2553C62.9844 16.763 63.8308 14.8021 65.5237 13.3726C67.2165 11.9431 69.483 11.2284 72.3232 11.2284C75.154 11.2284 77.4112 11.9384 79.0946 13.3585C80.778 14.7786 81.6197 16.7442 81.6197 19.2553C81.6197 21.7475 80.778 23.7084 79.0946 25.1379C77.4206 26.5674 75.1634 27.2821 72.3232 27.2821ZM72.3232 23.5579C73.7151 23.5579 74.8014 23.1723 75.5819 22.4011C76.3719 21.6299 76.7669 20.5813 76.7669 19.2553C76.7669 17.9198 76.3766 16.8712 75.5961 16.1094C74.8249 15.3382 73.7339 14.9526 72.3232 14.9526C70.9219 14.9526 69.8263 15.3382 69.0363 16.1094C68.2557 16.8806 67.8654 17.9292 67.8654 19.2553C67.8654 20.5813 68.2557 21.6299 69.0363 22.4011C69.8263 23.1723 70.9219 23.5579 72.3232 23.5579ZM83.8769 27V11.5105H88.5322L88.7297 14.1485H88.9977C89.4868 13.2081 90.2015 12.4886 91.142 11.9901C92.0918 11.4823 93.1875 11.2284 94.4289 11.2284C95.7832 11.2284 96.94 11.5199 97.8992 12.103C98.8585 12.6767 99.5498 13.5184 99.973 14.6282H100.241C101.36 12.3616 103.363 11.2284 106.251 11.2284C108.301 11.2284 109.876 11.8256 110.976 13.02C112.077 14.2144 112.627 16.0153 112.627 18.4229V27H107.774V19.0578C107.774 17.7129 107.53 16.6878 107.041 15.9824C106.552 15.2771 105.71 14.9244 104.515 14.9244C103.33 14.9244 102.39 15.3006 101.694 16.053C101.007 16.7959 100.664 17.7693 100.664 18.9731V27H95.8114V19.1142C95.8114 17.7505 95.5622 16.7113 95.0637 15.9965C94.5653 15.2818 93.7377 14.9244 92.5809 14.9244C91.3771 14.9244 90.4319 15.2959 89.7454 16.0389C89.0682 16.7818 88.7297 17.7599 88.7297 18.9731V27H83.8769ZM115.505 31.8246V11.5105H120.104L120.245 13.9369H120.456C120.945 13.1093 121.679 12.4557 122.657 11.976C123.635 11.4964 124.834 11.2566 126.254 11.2566C128.54 11.2566 130.378 11.9807 131.77 13.4291C133.162 14.8774 133.858 16.8194 133.858 19.2553C133.858 21.7005 133.157 23.6519 131.756 25.1097C130.364 26.558 128.521 27.2821 126.226 27.2821C124.956 27.2821 123.814 27.0376 122.798 26.5486C121.792 26.0501 121.039 25.373 120.541 24.5172H120.358V31.8246H115.505ZM124.759 23.5861C126.038 23.5861 127.058 23.2052 127.82 22.4434C128.591 21.6723 128.977 20.6095 128.977 19.2553C128.977 17.901 128.596 16.8477 127.834 16.0953C127.073 15.3335 126.047 14.9526 124.759 14.9526C123.405 14.9526 122.333 15.3241 121.543 16.0671C120.753 16.8006 120.358 17.727 120.358 18.8462V19.6079C120.358 20.7553 120.753 21.7052 121.543 22.4575C122.333 23.2099 123.405 23.5861 124.759 23.5861ZM143.042 27.2821C140.747 27.2821 138.899 26.558 137.498 25.1097C136.106 23.6519 135.41 21.7005 135.41 19.2553C135.41 16.8194 136.106 14.8774 137.498 13.4291C138.899 11.9807 140.747 11.2566 143.042 11.2566C144.481 11.2566 145.694 11.4964 146.681 11.976C147.669 12.4557 148.393 13.1093 148.854 13.9369H149.051L149.192 11.5105H153.819V27H148.938V24.5172H148.727C148.247 25.373 147.495 26.0501 146.47 26.5486C145.454 27.0376 144.311 27.2821 143.042 27.2821ZM144.537 23.5861C145.882 23.5861 146.945 23.2099 147.725 22.4575C148.515 21.7052 148.91 20.7553 148.91 19.6079V18.8462C148.91 17.727 148.515 16.8006 147.725 16.0671C146.935 15.3241 145.872 14.9526 144.537 14.9526C143.258 14.9526 142.233 15.3288 141.462 16.0812C140.7 16.8336 140.319 17.8916 140.319 19.2553C140.319 20.6095 140.7 21.6723 141.462 22.4434C142.223 23.2052 143.249 23.5861 144.537 23.5861ZM156.669 27V11.5105H161.353L161.522 14.2049H161.79C162.269 13.2833 163.031 12.5591 164.075 12.0325C165.129 11.4964 166.262 11.2284 167.475 11.2284C168.509 11.2284 169.422 11.3553 170.212 11.6093C171.011 11.8632 171.716 12.2676 172.328 12.8225C172.949 13.3679 173.419 14.1203 173.738 15.0796C174.058 16.0295 174.218 17.1721 174.218 18.5076V27H169.351V19.3399C169.351 17.8728 169.074 16.7724 168.519 16.0389C167.973 15.2959 167.071 14.9244 165.81 14.9244C164.522 14.9244 163.483 15.3288 162.693 16.1376C161.912 16.9464 161.522 17.995 161.522 19.2835V27H156.669ZM176.123 31.8246V27.9875H178.168C179.109 27.9875 179.814 27.8558 180.284 27.5925C180.754 27.3292 181.121 26.9013 181.384 26.3088L181.638 25.7586L174.472 11.5105H179.706L183.148 19.3117L183.952 21.2726H184.121L184.911 19.3117L188.17 11.5105H193.22L185.518 27.8323C184.841 29.2806 183.966 30.3057 182.894 30.9076C181.822 31.5189 180.43 31.8246 178.718 31.8246H176.123Z" fill="#ECECEC"/>
</svg>
